<svg width="300" height="82" viewBox="0 0 300 82" fill="none" xmlns="http://www.w3.org/2000/svg">
<path d="M77.09 20.58L73.2 18.44V11.83C76.7401 13.1164 80.0852 14.8865 83.14 17.09C83.14 22.98 83.66 28.94 82.56 34.85C81.31 41.51 77.31 46.47 72.19 50.6C63.43 57.6 53.74 63.46 44.48 69.85C41.95 71.62 39.33 73.35 36.84 75.31C40.93 74.67 44.35 72.31 48.37 70.81C51.07 74.16 56.94 75.24 55.88 81.57H27.37C26.9833 80.4899 26.9555 79.3139 27.2906 78.2167C27.6257 77.1195 28.3058 76.1598 29.23 75.48C31.77 73.4 34.29 71.29 36.83 69.2C36.5 68.12 35.54 67.83 34.83 67.34C27.41 62.2133 20.0333 57.02 12.7 51.76C4.33998 45.76 -0.0600223 37.95 0.00997767 27.65C0.00997767 24.15 0.00997767 20.65 0.00997767 17.08C3.0733 14.9103 6.40423 13.1457 9.91998 11.83V18.44L6.21998 20.54C6.12998 25.74 5.85998 30.95 6.87998 36.08C7.87998 41.08 10.81 45.01 14.47 48.38C20.8 54.19 27.77 59.21 34.73 64.25C34.9681 64.3611 35.2205 64.4385 35.48 64.48C35.7 63.54 34.95 63.25 34.48 62.86C31.11 59.86 27.68 56.86 24.34 53.86C16.63 46.86 12.34 38.4 12.68 27.77C12.9 20.45 12.68 13.11 12.68 5.47001C31.2789 -1.28453 51.667 -1.24557 70.24 5.58001C70.3483 5.85312 70.4222 6.13865 70.46 6.43001C70.42 14.29 70.4 22.1533 70.4 30.02C70.4 39.59 66.1 47.22 59.25 53.55C55.32 57.19 51.17 60.61 47.11 64.12C46.49 64.66 45.88 65.21 45.25 65.77C45.82 66.3 46.09 65.87 46.34 65.69C53.24 60.59 60.13 55.47 66.6 49.82C71.34 45.7 75.54 41.18 76.6 34.61C77.208 29.9595 77.372 25.2616 77.09 20.58V20.58ZM26.27 50.58C33.65 50.29 40.27 50.92 46.98 50.2C53.28 49.51 57.39 45.11 57.42 38.94C57.42 32.44 57.42 25.94 57.42 19.43C57.4388 16.7174 56.409 14.1024 54.5456 12.1309C52.6822 10.1595 50.1294 8.98403 47.42 8.85001C44.98 8.68001 42.52 8.57001 40.07 8.54001C35.66 8.54001 31.26 8.54001 26.3 8.54001L29.75 12.34V46.67L26.27 50.58ZM36 64.78C36 64.57 36 64.68 36 64.78C36 64.68 36 64.58 36 64.78Z" fill="#EA1920"/>
<path d="M219.9 21.51C226.83 20.58 233.69 19.26 240.59 22.14C244.722 20.5251 249.212 20.0519 253.59 20.77C258.4 21.58 261.46 24.52 261.54 29.4C261.72 40.08 261.59 50.76 261.59 61.57H252.65C252.1 60.82 252.36 59.94 252.36 59.13V34.59C252.36 29.12 250.23 27.72 244.92 29.83V61.53H236.67V34.53C236.67 29.17 234.91 27.84 229.22 29.14V61.61H219.9V21.51Z" fill="#EA1920"/>
<path d="M137.39 61.57H128.11V21.51C128.33 21.17 128.74 21.2 129.11 21.2C134.72 21.2 140.32 21.14 145.92 21.2C151.52 21.26 154.05 24.05 154.17 29.49C154.17 31.33 154.17 33.16 154.17 35C154.17 40.18 154.04 40.51 150.42 44C154.27 45.1 155.1 48 155.05 51.45C155 54.9 155.05 58.13 155.05 61.59H145.44V50.81C145.44 48.26 144.77 47.59 142.16 47.53C140.86 47.53 139.56 47.53 138.25 47.53C137.956 47.5884 137.671 47.6824 137.4 47.81L137.39 61.57ZM137.45 40.2H141.31C143.77 40.11 144.57 39.34 144.65 36.83C144.72 34.78 144.65 32.72 144.65 30.66C144.68 30.3073 144.64 29.9521 144.533 29.6148C144.426 29.2775 144.253 28.9647 144.024 28.6943C143.796 28.424 143.516 28.2014 143.201 28.0394C142.886 27.8773 142.543 27.779 142.19 27.75H142C140.479 27.5078 138.925 27.5724 137.43 27.94L137.45 40.2Z" fill="#EA1920"/>
<path d="M196 47.62V61.52H186.73V21.18C193.19 21.45 199.63 20.51 205.98 21.75C208.223 22.077 210.27 23.2074 211.742 24.931C213.213 26.6545 214.009 28.8539 213.98 31.12C214.12 41.19 213.98 51.26 213.98 61.52H204.56V47.62H196ZM204.58 40.12C204.58 38.25 204.58 36.65 204.58 35.05C204.79 27.85 204.09 27.35 196.4 27.75C196.34 27.75 196.29 27.85 196.16 27.97V40.14L204.58 40.12Z" fill="#EA1920"/>
<path d="M93.39 21.27C100.19 21.27 106.26 21.03 112.29 21.34C119.04 21.68 122.79 26.05 122.79 32.77V50C122.79 56.51 119.5 60.74 113.04 61.49C106.76 62.24 100.4 61.68 93.37 61.74C96.92 58.85 96.2 55.38 96.21 52.09V29.59C96.28 26.69 96.58 23.74 93.39 21.27ZM105.84 28.13V54.63H108.72C112.08 54.56 113.49 53.18 113.5 49.87V32.67C113.5 29.67 112.09 28.25 109.23 28.17C108.16 28.09 107.1 28.17 105.84 28.17V28.13Z" fill="#EA1920"/>
<path d="M181.6 21.27V28.52H169.6C168.26 31.52 169.16 34.58 168.89 37.69H180.07V45H169V53.87C173.13 54.77 177.33 53.95 181.55 54.39C181.772 56.7541 181.788 59.133 181.6 61.5C176.5 61.5 171.52 61.8 166.6 61.41C162.33 61.08 159.72 57.93 159.66 53.62C159.54 45.5133 159.54 37.41 159.66 29.31C159.73 24.61 162.66 21.53 167.41 21.31C172.16 21.09 176.75 21.27 181.6 21.27Z" fill="#EA1920"/>
<path d="M289.11 21.27H300V61.54H290.71V30C289.39 29.21 288.09 29.85 286.71 29.37C287.351 26.6255 288.152 23.9208 289.11 21.27V21.27Z" fill="#EA1920"/>
<path d="M281.71 61.61H272.58V30C271.12 29.25 269.74 29.94 268.4 29.33C269.21 26.72 270.03 24.08 270.9 21.33H281.71V61.61Z" fill="#EA1920"/>
<path d="M39.66 15.91H43C46.21 16.03 47.32 17.19 47.32 20.41V37.57C47.32 41.84 46.32 42.79 42.07 42.79H39.66V15.91Z" fill="#EA1920"/>
</svg>
