<svg version="1.1" id="Layer_1" xmlns="http://www.w3.org/2000/svg" xmlns:xlink="http://www.w3.org/1999/xlink" x="0px" y="0px"
	 width="100%" viewBox="0 0 996 564" enable-background="new 0 0 996 564" xml:space="preserve">
<path fill="#FDFEFE" opacity="1.000000" stroke="none" 
	d="
M576.000000,565.000000 
	C384.000000,565.000000 192.500000,565.000000 1.000000,565.000000 
	C1.000000,377.000000 1.000000,189.000000 1.000000,1.000000 
	C333.000000,1.000000 665.000000,1.000000 997.000000,1.000000 
	C997.000000,189.000000 997.000000,377.000000 997.000000,565.000000 
	C856.833313,565.000000 716.666687,565.000000 576.000000,565.000000 
M874.236694,389.370148 
	C874.469971,389.318329 874.632202,389.182007 875.685242,389.112823 
	C882.543335,389.084442 889.401489,389.056030 896.294312,389.236633 
	C896.294312,389.236633 896.603943,389.258514 896.603943,389.258514 
	C896.603943,389.258514 896.741150,389.025940 897.654114,389.168732 
	C899.189880,389.116394 900.725647,389.064056 902.956787,389.255798 
	C906.934021,389.145996 910.911255,389.036194 914.926575,388.989746 
	C914.926575,388.989746 914.952515,388.920532 915.744568,388.900177 
	C915.928894,384.243469 916.156738,379.587128 916.197693,374.929138 
	C916.200317,374.624817 914.769836,374.307892 913.078735,373.841644 
	C894.720642,373.889923 876.362610,373.938171 857.307922,373.775299 
	C856.605347,374.183868 855.902771,374.592438 855.013611,375.921570 
	C855.079773,400.616974 855.145874,425.312378 855.052734,450.802032 
	C855.109558,451.876312 855.166382,452.950592 855.027954,454.711121 
	C855.325928,455.498413 855.623901,456.285675 855.984558,456.996918 
	C855.984558,456.996918 855.932373,457.077362 856.147583,457.391663 
	C856.486023,457.325867 856.824463,457.260101 857.129700,457.104340 
	C857.129700,457.104340 857.046936,457.152679 857.952515,457.390747 
	C876.625732,457.278381 895.299011,457.165985 914.193115,457.282257 
	C914.193115,457.282257 914.668457,457.302216 914.668457,457.302216 
	C914.668457,457.302216 915.050171,457.052368 915.048279,457.019501 
	C915.048279,457.019501 915.016602,457.012146 915.691833,457.222565 
	C916.136597,457.108337 916.581360,456.994080 917.535828,456.904297 
	C917.569031,455.290192 917.602234,453.676056 917.777039,451.389099 
	C917.713440,450.938782 917.649780,450.488434 917.768921,449.211578 
	C916.699341,447.073456 920.292725,442.946655 914.046387,442.422394 
	C907.250122,442.431519 900.453918,442.440643 892.919678,442.219574 
	C887.055115,442.362549 881.190735,442.548065 875.325562,442.580200 
	C874.761841,442.583313 874.192871,441.632263 873.721008,440.270050 
	C873.609497,439.138947 873.497986,438.007812 873.641968,436.316895 
	C873.547180,435.929047 873.452454,435.541199 873.593811,434.226105 
	C873.570679,419.786255 873.547546,405.346375 873.719543,390.477936 
	C873.719543,390.477936 873.598389,390.022919 873.871643,389.715729 
	C873.871643,389.715729 873.913696,389.306732 874.236694,389.370148 
M341.000000,423.001221 
	C341.000000,423.001221 341.006439,423.002350 341.753998,423.173676 
	C342.044861,422.249664 342.335693,421.325684 342.603149,420.322083 
	C342.603149,420.322083 342.652588,420.255493 343.000214,419.481110 
	C343.000214,415.856018 343.000214,412.230927 343.000214,408.425507 
	C334.548157,408.425507 326.491333,408.425507 318.344238,408.425507 
	C317.711121,412.699188 317.040924,416.631561 316.623169,420.590515 
	C316.548248,421.300507 317.515594,422.120483 318.918579,423.100006 
	C325.642792,423.067719 332.367004,423.035400 339.429962,423.224640 
	C339.951569,423.150909 340.473175,423.077179 341.000000,423.001221 
M761.842163,403.919891 
	C761.842163,403.919891 761.799255,403.800262 761.280701,404.267670 
	C761.183899,405.180420 761.087036,406.093140 760.589478,407.529724 
	C760.436584,408.353088 760.283691,409.176483 759.961792,410.916046 
	C758.357849,438.622070 776.215698,452.731812 793.592712,457.010742 
	C812.512268,461.669586 835.947510,453.124115 843.060059,438.680176 
	C838.682739,436.838074 834.330383,435.006470 829.554382,433.008545 
	C829.554382,433.008545 829.101318,432.965790 828.770935,432.358704 
	C827.748840,432.459442 826.726685,432.560181 825.654541,432.683502 
	C825.654541,432.683502 825.654053,432.628632 825.069031,432.859467 
	C824.042664,433.904022 823.016357,434.948578 821.515564,436.111206 
	C821.196899,436.266968 821.007690,436.519684 820.255981,437.014313 
	C817.987305,438.292847 815.718628,439.571411 812.972900,441.304260 
	C808.050537,441.507568 803.128235,441.710907 797.988586,441.252289 
	C784.918091,434.940735 777.216125,425.375580 779.499939,409.485687 
	C784.622986,394.074005 797.562744,386.640778 813.217651,390.797150 
	C813.819885,390.841461 814.422058,390.885773 815.543396,391.301392 
	C816.674072,391.901459 817.804749,392.501556 818.995544,393.028564 
	C818.995544,393.028564 818.907043,393.062042 819.154663,393.700653 
	C820.980286,395.070557 822.730530,396.561493 824.660706,397.763489 
	C825.759766,398.447937 827.430359,399.349060 828.366943,398.971161 
	C833.491089,396.903809 838.467468,394.470215 844.758850,391.582153 
	C840.715820,388.033386 837.355042,385.083466 833.826721,381.846069 
	C833.826721,381.846069 833.493958,381.848419 833.125977,381.243378 
	C832.124390,380.642670 831.122803,380.041992 829.657532,378.976044 
	C819.612366,373.112946 808.615845,371.501221 797.418213,373.280029 
	C783.191040,375.540070 771.482971,382.161438 764.397156,396.250336 
	C763.911377,397.502869 763.425537,398.755432 762.759766,400.193268 
	C762.759766,400.193268 762.873901,400.425018 762.324829,400.958130 
	C762.121765,401.941956 761.918640,402.925781 761.842163,403.919891 
M346.952423,374.793732 
	C346.641418,374.556488 346.330414,374.319244 345.111359,373.819672 
	C325.725098,373.891510 306.338806,373.963379 286.367371,374.051697 
	C286.369507,374.535034 286.371613,375.018341 286.396393,375.531464 
	C286.396393,375.531464 286.362244,375.555023 286.424042,375.811218 
	C286.460114,376.050568 286.389496,376.279144 285.885498,377.320251 
	C285.872223,386.614258 285.813568,395.908447 285.855530,405.202209 
	C285.931946,422.123444 286.067993,439.044434 286.172852,456.762451 
	C286.732544,457.015015 287.293793,457.491638 287.851715,457.487793 
	C307.566711,457.351593 327.281433,457.170349 347.790558,456.952972 
	C348.058228,452.154724 348.325867,447.356476 348.629364,441.916260 
	C333.357147,441.916260 319.160126,441.916260 304.429688,441.916260 
	C304.429688,436.508423 304.375824,431.724701 304.440125,426.942566 
	C304.609589,414.343079 304.830322,401.744324 305.963776,389.173370 
	C318.978851,389.086090 331.993896,388.998840 345.864777,389.040497 
	C346.180054,385.278015 346.495331,381.515533 346.973145,377.146545 
	C346.900238,376.525543 346.827332,375.904572 346.707794,375.255981 
	C346.707794,375.255981 346.740692,375.216431 346.952423,374.793732 
M623.993591,373.221466 
	C619.697876,373.282043 615.402222,373.342621 610.199585,373.227448 
	C607.139099,373.314941 604.078613,373.402435 600.219727,373.269989 
	C599.490845,374.260406 598.127014,375.250183 598.125977,376.241333 
	C598.100525,401.138794 598.218506,426.036438 598.136108,451.735504 
	C598.202271,452.822357 598.268433,453.909210 598.186768,455.740662 
	C598.574524,456.188782 598.956665,457.021454 599.350891,457.027222 
	C605.095093,457.111420 610.840881,457.085022 617.053589,457.085022 
	C617.053589,447.805298 617.053589,439.080322 617.053589,429.879944 
	C620.299500,429.879944 623.087524,429.825012 625.871765,429.904053 
	C627.186646,429.941345 628.494263,430.235443 629.712036,430.256989 
	C629.712036,430.256989 629.611755,430.408752 629.734680,431.022705 
	C630.105469,431.514191 630.476257,432.005646 630.871277,432.989136 
	C631.176697,433.349426 631.482117,433.709717 631.882080,434.739075 
	C632.572632,435.866913 633.263184,436.994720 634.033752,438.827698 
	C637.355347,444.756165 640.676941,450.684631 644.853638,457.032074 
	C650.501587,457.074127 656.151062,457.183716 661.795532,457.063568 
	C662.424500,457.050110 663.025757,455.729950 663.457153,454.379028 
	C658.848511,446.888611 654.437378,439.265747 649.543091,431.966858 
	C647.290161,428.607208 648.187439,427.430389 651.122498,425.142792 
	C654.937866,422.169098 658.307129,418.318726 660.980347,414.260712 
	C664.357788,409.133423 662.915466,402.975830 663.095154,397.194214 
	C663.328125,389.702332 660.369080,384.007690 653.471191,379.635406 
	C651.149048,378.389130 648.826904,377.142853 645.900452,375.331665 
	C638.893555,374.699310 631.886658,374.066986 623.993591,373.221466 
M247.085907,392.990082 
	C247.085907,392.990082 247.165115,392.926239 247.703812,393.355225 
	C249.536423,394.210083 251.922546,396.261261 253.106232,395.713623 
	C258.352875,393.286133 263.254395,390.112671 269.355072,386.588531 
	C266.078308,384.810303 264.114227,383.744415 262.150024,382.008148 
	C260.765930,381.064240 259.381805,380.120331 257.452972,378.725739 
	C247.566696,372.794861 236.685074,371.425049 225.655136,373.188171 
	C210.396011,375.627289 198.275711,383.005249 191.596634,398.506805 
	C191.367096,399.346252 191.137573,400.185669 190.367966,401.532013 
	C189.902328,404.016571 189.436707,406.501129 188.618393,409.714111 
	C188.857986,414.843201 188.317993,420.156158 189.476837,425.068390 
	C193.706924,442.999573 205.789856,453.473083 223.367050,457.037994 
	C241.889465,460.794586 257.965881,455.657715 270.459076,440.952576 
	C271.185150,440.097931 272.017548,438.952820 272.030884,437.932831 
	C272.152069,428.671204 272.101959,419.407379 272.101959,410.119171 
	C270.331116,410.119171 269.175659,410.119171 267.092712,409.955627 
	C257.515503,409.955627 247.938263,409.955627 237.594879,409.955627 
	C238.130508,415.627014 238.571884,420.300537 239.184540,425.200439 
	C239.184540,425.200439 239.452103,425.105652 240.249069,425.502441 
	C244.177383,425.353088 248.105682,425.203705 252.531006,425.260773 
	C252.881424,425.220428 253.231827,425.180054 254.083237,425.901917 
	C254.122726,427.943512 254.162216,429.985138 253.675415,432.459198 
	C248.734879,435.625763 244.159790,440.136627 238.757645,441.605225 
	C232.550629,443.292633 225.914658,441.406342 220.035904,437.748169 
	C209.651611,431.286346 204.812027,418.583130 208.646378,406.988037 
	C211.109222,399.540375 216.713058,394.971741 223.839706,391.142426 
	C229.893250,390.752350 235.946793,390.362305 242.645950,390.209869 
	C243.781494,390.806793 244.917038,391.403717 246.016495,392.569397 
	C246.353470,392.681885 246.690460,392.794373 247.085907,392.990082 
M434.537567,437.566895 
	C434.578613,435.737274 434.619690,433.907654 434.847626,431.148193 
	C434.779175,421.434662 434.710724,411.721130 434.862885,401.093475 
	C434.862885,391.862732 434.862885,382.632019 434.862885,373.633972 
	C428.694214,373.633972 423.301880,373.633972 417.462494,373.633972 
	C417.462494,385.687561 417.548584,397.300385 417.432220,408.911224 
	C417.354919,416.623718 420.405396,423.041656 425.217316,429.568787 
	C428.120392,432.156464 431.023499,434.744171 434.537567,437.566895 
M383.023834,379.364929 
	C382.357666,378.558014 381.691528,377.751099 380.946167,376.414124 
	C380.515747,375.847260 380.085297,375.280396 379.185211,374.018555 
	C373.683746,373.643188 368.182251,373.267792 363.269104,372.932556 
	C362.557709,374.021179 362.393280,374.155396 362.392822,374.290131 
	C362.303436,401.150879 362.236633,428.011658 362.132599,454.872345 
	C362.120544,457.989594 363.799866,458.004974 366.948822,457.443878 
	C370.965485,457.296082 374.982117,457.148285 379.711548,456.529724 
	C379.726288,444.757263 379.787628,432.984558 379.721130,421.212555 
	C379.705627,418.469574 379.255432,415.729004 379.009857,412.143005 
	C379.168518,409.867920 379.327209,407.592865 379.586853,403.870209 
	C381.576752,406.365814 382.585510,407.446411 383.386536,408.663696 
	C393.266907,423.677795 403.081421,438.735504 413.029480,453.704437 
	C414.037048,455.220581 415.728790,457.190735 417.230560,457.307281 
	C422.778534,457.737854 428.380066,457.478516 434.564575,457.478516 
	C433.721588,455.898560 433.340454,455.016022 432.817169,454.227905 
	C418.731659,433.014008 404.658600,411.791687 390.506592,390.622131 
	C388.225159,387.209412 385.581207,384.039032 383.126892,380.361603 
	C383.126892,380.361603 382.957581,380.003937 383.023834,379.364929 
M562.596802,456.145966 
	C562.497253,453.435577 562.397705,450.725189 562.593445,447.120209 
	C562.499451,440.704468 562.405457,434.288727 562.548767,427.023865 
	C562.473389,424.675598 562.397949,422.327301 562.614990,419.213593 
	C562.646362,413.593140 562.798767,407.968933 562.625000,402.354828 
	C562.580872,400.931610 561.884583,398.854431 560.823486,398.256134 
	C556.712585,395.938080 552.307251,394.770142 547.532593,396.617859 
	C544.440002,397.814606 542.859253,399.583130 543.862610,403.919342 
	C543.862610,421.842926 543.862610,439.766479 543.862610,458.479126 
	C550.471863,457.924744 556.366211,457.430328 562.402466,457.148499 
	C562.402466,457.148499 562.339539,457.297546 562.339539,457.297546 
	C562.339539,457.297546 562.195007,456.959045 562.596802,456.145966 
M889.916931,423.106689 
	C897.281372,423.106689 904.645813,423.106689 912.233948,423.106689 
	C912.125854,420.960754 912.051453,419.484772 912.163391,417.103790 
	C912.163391,414.192444 912.163391,411.281067 912.163391,408.142578 
	C907.054321,408.142578 902.615845,408.124176 898.177490,408.146210 
	C887.342590,408.200073 887.342407,408.207581 886.070679,418.862854 
	C886.011841,419.355560 886.011597,419.859650 885.907471,420.341888 
	C885.292175,423.191803 886.813660,423.441742 889.916931,423.106689 
M716.943787,399.004395 
	C716.943787,399.004395 716.916931,399.067902 716.927490,399.837158 
	C723.600830,418.123352 730.224731,436.428070 737.062195,454.652679 
	C737.504028,455.830261 739.590942,456.390625 741.670349,457.558167 
	C747.035400,457.558167 752.400513,457.558167 758.197815,457.558167 
	C751.770508,441.255615 745.687988,425.684387 739.491394,410.158661 
	C735.130310,399.231842 730.614258,388.366882 726.171997,376.821625 
	C725.489624,375.778229 724.807251,374.734833 723.399902,373.272461 
	C718.454834,373.251343 713.504578,373.098358 708.568115,373.293854 
	C707.185791,373.348602 705.844177,374.429810 704.091797,375.487152 
	C704.022400,375.871979 703.952942,376.256775 703.445129,376.955597 
	C703.372437,377.294617 703.299744,377.633636 702.843872,378.590210 
	C692.213684,404.822327 681.583496,431.054443 670.876221,457.476868 
	C676.661987,457.476868 681.675171,457.743774 686.630188,457.324036 
	C688.244080,457.187347 690.510071,455.582642 691.108276,454.097656 
	C695.207092,443.922943 698.925964,433.595551 702.798767,423.329254 
	C705.968018,414.928284 709.119873,406.519531 712.438782,398.177582 
	C712.946594,396.901428 713.241516,393.171692 715.977417,397.422699 
	C716.296448,397.970703 716.615479,398.518707 716.943787,399.004395 
M144.183365,396.411682 
	C151.287613,415.927460 158.379181,435.447937 165.533295,454.945404 
	C165.894211,455.929047 166.772034,457.455139 167.448853,457.476593 
	C173.647644,457.673004 179.855209,457.592102 186.675598,457.592102 
	C182.002823,445.805176 177.755692,435.006348 173.443054,424.233795 
	C167.275497,408.827728 161.060013,393.440887 154.821747,377.290710 
	C154.203354,374.209808 152.450333,372.908264 149.205597,373.134552 
	C145.560516,373.388885 141.861847,373.487915 138.230728,373.161865 
	C134.372421,372.815399 132.701859,374.511993 131.346390,377.932495 
	C123.383072,398.027679 115.188065,418.030975 107.097054,438.075684 
	C104.571121,444.333496 102.125496,450.623688 99.392464,457.532654 
	C104.771309,457.532654 109.371429,457.316986 113.940498,457.600922 
	C117.590553,457.827759 119.114548,456.219543 120.315208,452.963928 
	C126.931870,435.022858 133.724747,417.145966 140.617615,399.309052 
	C141.184784,397.841370 142.948654,396.836182 144.183365,396.411682 
M401.010162,174.912216 
	C401.004730,193.343109 400.967133,211.774078 401.003784,230.204895 
	C401.034790,245.804428 401.151764,261.403778 401.013275,277.917572 
	C401.026428,289.581696 401.021973,301.245850 401.060699,312.909882 
	C401.078064,318.142029 402.705566,319.933868 407.782593,319.938080 
	C449.107910,319.972290 490.433289,319.937012 531.758606,319.977692 
	C536.379150,319.982239 538.453857,317.865387 538.384216,313.305634 
	C538.306641,308.224060 538.366455,303.140411 538.366455,297.811829 
	C544.770447,297.811829 550.246643,297.835175 555.722595,297.805481 
	C561.554626,297.773834 563.231445,296.209961 563.263855,290.461670 
	C563.337097,277.464539 563.266174,264.466583 563.355835,251.469650 
	C563.381714,247.729797 561.948975,244.969116 558.110596,245.075394 
	C554.560364,245.173691 553.242920,247.944473 553.275208,251.419662 
	C553.369446,261.583740 553.365540,271.748718 553.398010,281.913361 
	C553.403564,283.662628 553.398804,285.411957 553.398804,287.087311 
	C513.850708,287.087311 475.111237,287.087311 436.376465,287.087311 
	C436.376465,235.548828 436.376465,184.429749 436.376465,133.109818 
	C437.572449,133.005508 438.534149,132.855011 439.496948,132.847733 
	C451.993713,132.753113 464.490601,132.631760 476.987457,132.629074 
	C480.592621,132.628296 483.658539,131.697830 483.477936,127.614487 
	C483.322021,124.088554 480.618530,122.813133 477.108521,122.832390 
	C462.278503,122.913750 447.447327,122.923378 432.617523,122.823013 
	C427.961792,122.791504 425.886292,124.904312 425.927216,129.450897 
	C425.973328,134.574844 425.937836,139.699539 425.937836,145.584076 
	C419.398071,145.584076 413.285706,145.569382 407.173492,145.589630 
	C403.550079,145.601639 400.949249,146.896942 400.975159,151.027313 
	C401.023224,158.684219 401.140991,166.340683 401.010162,174.912216 
M590.949585,176.578400 
	C590.271606,211.283539 561.421753,235.329437 528.028870,229.021851 
	C507.630402,225.168793 491.085815,208.561768 487.189301,188.028122 
	C483.111633,166.539948 492.319244,144.293884 510.356079,133.501205 
	C528.990112,122.351166 547.926025,122.603630 566.682068,133.476257 
	C569.884766,135.332794 572.861145,136.552139 575.232605,132.617035 
	C577.733398,128.467270 574.502319,126.570938 571.685791,124.772743 
	C557.649597,115.811401 542.257690,113.361633 526.149048,116.471161 
	C495.504089,122.386696 473.262054,152.024414 476.173828,182.448196 
	C479.326294,215.386749 505.128174,239.990295 537.488281,239.880219 
	C546.764893,239.848679 556.032654,237.191437 565.919312,235.641754 
	C575.146606,250.339005 584.940552,265.982941 594.783875,281.595673 
	C598.684509,287.782593 602.458496,294.071259 606.739868,299.988220 
	C609.506287,303.811462 614.641602,303.048401 615.585205,298.818329 
	C615.972839,297.080688 614.805786,294.694641 613.739929,292.980225 
	C600.574341,271.803314 587.296570,250.696106 573.981079,229.464554 
	C574.985168,228.557968 575.806702,227.741608 576.703125,227.018021 
	C590.589294,215.808578 598.714478,201.419296 600.612427,183.619568 
	C602.156616,169.138092 598.509705,155.857483 590.899658,143.624329 
	C589.217346,140.920044 586.878235,138.457565 583.083801,140.840576 
	C579.313110,143.208694 580.487000,145.898697 582.299866,148.898636 
	C587.280640,157.140671 590.361328,166.031662 590.949585,176.578400 
M543.144043,138.161423 
	C541.480408,138.100601 539.816589,137.981857 538.153198,137.987869 
	C519.744263,138.054291 504.440002,150.060455 499.523376,168.270767 
	C495.226562,184.185410 503.162720,203.355911 517.575195,211.876358 
	C533.373779,221.216278 553.102844,219.166885 566.002808,206.545944 
	C577.676819,195.124420 581.268066,181.003159 576.451355,165.729858 
	C571.574646,150.266434 560.462830,140.787460 543.144043,138.161423 
M470.161072,440.498169 
	C470.161072,446.096771 470.161072,451.695374 470.161072,457.261658 
	C476.830170,457.261658 482.832611,457.261658 489.086273,457.261658 
	C489.086273,438.335388 489.114502,419.903961 489.017059,401.473206 
	C489.011139,400.352783 488.224731,398.476990 487.431183,398.250610 
	C483.835968,397.224945 480.087708,396.003113 476.432617,396.113434 
	C472.271942,396.239075 469.862640,398.507263 470.045258,403.613647 
	C470.472534,415.561523 470.168030,427.535553 470.161072,440.498169 
M476.500427,373.660126 
	C466.558533,373.660126 456.616638,373.660126 446.605042,373.660126 
	C446.605042,379.078674 446.605042,383.970459 446.605042,389.038513 
	C468.968353,389.038513 491.052826,389.038513 513.258606,389.038513 
	C513.258606,383.783173 513.258606,378.751892 513.258606,373.660339 
	C501.102844,373.660339 489.301666,373.660339 476.500427,373.660126 
M555.499878,389.252838 
	C565.911377,389.252838 576.322937,389.252838 586.713074,389.252838 
	C586.713074,383.627167 586.713074,378.698395 586.713074,373.818054 
	C564.357788,373.818054 542.268127,373.818054 519.957397,373.818054 
	C519.957397,378.927734 519.957397,383.829926 519.957397,389.252655 
	C531.619507,389.252655 543.059631,389.252655 555.499878,389.252838 
M448.960999,210.492401 
	C447.966644,214.563370 449.632874,217.597626 453.591492,217.809479 
	C459.224792,218.110947 464.949493,218.320663 470.506622,217.590775 
	C472.575104,217.319061 475.567963,214.471390 475.849731,212.475204 
	C476.266754,209.520767 473.597504,207.625229 470.206879,207.672943 
	C464.887970,207.747803 459.558960,207.567490 454.253387,207.852020 
	C452.615295,207.939850 451.039429,209.189163 448.960999,210.492401 
M462.020905,172.835266 
	C465.389771,172.265045 469.279541,171.533127 468.684845,167.199600 
	C468.149017,163.295135 464.546326,162.545349 460.912262,162.764679 
	C458.432861,162.914307 455.742035,162.263214 453.511444,163.031631 
	C451.496246,163.725861 449.977417,165.860947 448.239716,167.360657 
	C449.892456,169.132263 451.242249,171.655975 453.278290,172.476120 
	C455.579956,173.403275 458.497894,172.800476 462.020905,172.835266 
M462.001038,185.331985 
	C459.010620,185.361389 455.830627,184.779327 453.094208,185.627869 
	C451.160309,186.227570 449.827454,188.765396 448.226257,190.438004 
	C449.956451,191.988678 451.459167,194.294617 453.473694,194.901413 
	C456.069946,195.683441 459.079102,195.024460 461.904816,195.132980 
	C465.259888,195.261841 468.354370,194.234650 468.704254,190.770889 
	C469.059174,187.257111 466.244934,185.645920 462.001038,185.331985 
z"/>
<path fill="#100A0B" opacity="1.000000" stroke="none" 
	d="
M401.229736,173.997330 
	C401.140991,166.340683 401.023224,158.684219 400.975159,151.027313 
	C400.949249,146.896942 403.550079,145.601639 407.173492,145.589630 
	C413.285706,145.569382 419.398071,145.584076 425.937836,145.584076 
	C425.937836,139.699539 425.973328,134.574844 425.927216,129.450897 
	C425.886292,124.904312 427.961792,122.791504 432.617523,122.823013 
	C447.447327,122.923378 462.278503,122.913750 477.108521,122.832390 
	C480.618530,122.813133 483.322021,124.088554 483.477936,127.614487 
	C483.658539,131.697830 480.592621,132.628296 476.987457,132.629074 
	C464.490601,132.631760 451.993713,132.753113 439.496948,132.847733 
	C438.534149,132.855011 437.572449,133.005508 436.376465,133.109818 
	C436.376465,184.429749 436.376465,235.548828 436.376465,287.087311 
	C475.111237,287.087311 513.850708,287.087311 553.398804,287.087311 
	C553.398804,285.411957 553.403564,283.662628 553.398010,281.913361 
	C553.365540,271.748718 553.369446,261.583740 553.275208,251.419662 
	C553.242920,247.944473 554.560364,245.173691 558.110596,245.075394 
	C561.948975,244.969116 563.381714,247.729797 563.355835,251.469650 
	C563.266174,264.466583 563.337097,277.464539 563.263855,290.461670 
	C563.231445,296.209961 561.554626,297.773834 555.722595,297.805481 
	C550.246643,297.835175 544.770447,297.811829 538.366455,297.811829 
	C538.366455,303.140411 538.306641,308.224060 538.384216,313.305634 
	C538.453857,317.865387 536.379150,319.982239 531.758606,319.977692 
	C490.433289,319.937012 449.107910,319.972290 407.782593,319.938080 
	C402.705566,319.933868 401.078064,318.142029 401.060699,312.909882 
	C401.021973,301.245850 401.026428,289.581696 401.494141,277.444763 
	C403.371674,274.518799 404.768341,272.065674 406.872833,268.369293 
	C407.351746,271.730927 407.584015,274.027954 408.020569,276.285461 
	C408.907104,280.870117 409.904053,285.433411 410.947052,290.465576 
	C411.038605,297.207581 411.038605,303.489563 411.038605,309.792877 
	C450.410034,309.792877 489.264923,309.792877 528.123657,309.792877 
	C528.123657,305.613739 528.123657,301.874359 528.123657,297.809631 
	C526.021545,297.809631 524.211548,297.810089 522.401611,297.809540 
	C493.420471,297.800598 464.439362,297.800964 435.458221,297.776489 
	C427.427429,297.769714 426.076294,296.452698 426.068298,288.555298 
	C426.025452,246.249573 426.006561,203.943802 425.979645,161.638062 
	C425.978394,159.684052 425.979492,157.730057 425.979492,155.626312 
	C420.772522,155.626312 416.066772,155.626312 410.874542,155.626312 
	C410.874542,162.372879 410.874542,168.683121 410.500122,175.091568 
	C408.773865,178.265869 407.521271,181.333496 410.971985,184.416016 
	C411.004272,186.213562 410.943115,187.602585 410.622070,189.273499 
	C409.908600,192.152557 409.117188,194.741730 409.055603,197.348160 
	C408.619965,215.783005 408.348328,234.221695 407.972168,252.658081 
	C407.943329,254.070862 407.513336,255.475479 407.269806,256.883881 
	C406.707581,256.860107 406.145355,256.836334 405.583130,256.812561 
	C405.388763,255.004745 405.049072,253.199081 405.021942,251.388733 
	C404.655457,226.958511 404.331299,202.527618 404.000916,178.096848 
	C403.974091,176.113968 404.401123,173.845215 401.229736,173.997330 
z"/>
<path fill="#13090A" opacity="1.000000" stroke="none" 
	d="
M590.941040,176.145020 
	C590.361328,166.031662 587.280640,157.140671 582.299866,148.898636 
	C580.487000,145.898697 579.313110,143.208694 583.083801,140.840576 
	C586.878235,138.457565 589.217346,140.920044 590.899658,143.624329 
	C598.509705,155.857483 602.156616,169.138092 600.612427,183.619568 
	C598.714478,201.419296 590.589294,215.808578 576.703125,227.018021 
	C575.806702,227.741608 574.985168,228.557968 573.981079,229.464554 
	C587.296570,250.696106 600.574341,271.803314 613.739929,292.980225 
	C614.805786,294.694641 615.972839,297.080688 615.585205,298.818329 
	C614.641602,303.048401 609.506287,303.811462 606.739868,299.988220 
	C602.458496,294.071259 598.684509,287.782593 594.783875,281.595673 
	C584.940552,265.982941 575.146606,250.339005 565.919312,235.641754 
	C556.032654,237.191437 546.764893,239.848679 537.488281,239.880219 
	C505.128174,239.990295 479.326294,215.386749 476.173828,182.448196 
	C473.262054,152.024414 495.504089,122.386696 526.149048,116.471161 
	C542.257690,113.361633 557.649597,115.811401 571.685791,124.772743 
	C574.502319,126.570938 577.733398,128.467270 575.232605,132.617035 
	C572.861145,136.552139 569.884766,135.332794 566.682068,133.476257 
	C547.926025,122.603630 528.990112,122.351166 510.356079,133.501205 
	C492.319244,144.293884 483.111633,166.539948 487.189301,188.028122 
	C491.085815,208.561768 507.630402,225.168793 528.028870,229.021851 
	C561.421753,235.329437 590.271606,211.283539 590.941040,176.145020 
z"/>
<path fill="#13090A" opacity="1.000000" stroke="none" 
	d="
M543.596375,138.198914 
	C560.462830,140.787460 571.574646,150.266434 576.451355,165.729858 
	C581.268066,181.003159 577.676819,195.124420 566.002808,206.545944 
	C553.102844,219.166885 533.373779,221.216278 517.575195,211.876358 
	C503.162720,203.355911 495.226562,184.185410 499.523376,168.270767 
	C504.440002,150.060455 519.744263,138.054291 538.153198,137.987869 
	C539.816589,137.981857 541.480408,138.100601 543.596375,138.198914 
M559.730896,156.778931 
	C542.346375,139.629669 517.810974,150.071960 513.479309,162.926392 
	C514.844543,162.926392 516.167053,162.927139 517.489563,162.926285 
	C526.810364,162.920212 536.143860,162.656982 545.441833,163.114243 
	C547.410095,163.211029 549.248840,165.940933 551.147278,167.457626 
	C549.443909,169.214706 548.003479,171.454285 545.951782,172.571991 
	C544.387085,173.424393 542.047729,172.905273 540.052856,172.908844 
	C529.779297,172.927216 519.505737,172.917358 508.739655,172.917358 
	C508.739655,175.208786 508.723877,177.000015 508.742462,178.790878 
	C508.810120,185.311020 508.814514,185.293869 515.393127,185.304337 
	C525.213684,185.319977 535.034180,185.383759 544.854736,185.382263 
	C548.333496,185.381729 551.115784,186.944214 551.088806,190.367264 
	C551.060791,193.908600 548.068542,195.134979 544.664490,195.109207 
	C539.005493,195.066376 533.345703,195.121094 527.686279,195.128494 
	C523.501282,195.133972 519.316284,195.129562 513.875610,195.129562 
	C521.809387,204.428986 530.436096,208.712402 541.144470,207.458817 
	C553.149780,206.053406 562.148987,199.855591 566.404297,188.327011 
	C570.605042,176.946365 568.538330,166.395126 559.730896,156.778931 
z"/>
<path fill="#044CEF" opacity="1.000000" stroke="none" 
	d="
M246.052582,392.000671 
	C244.917038,391.403717 243.781494,390.806793 242.096893,389.809326 
	C235.007889,385.734314 228.823120,386.262238 222.992233,390.977112 
	C216.713058,394.971741 211.109222,399.540375 208.646378,406.988037 
	C204.812027,418.583130 209.651611,431.286346 220.035904,437.748169 
	C225.914658,441.406342 232.550629,443.292633 238.757645,441.605225 
	C244.159790,440.136627 248.734879,435.625763 254.197662,431.990173 
	C255.502777,429.186829 258.175415,426.515594 253.582245,425.139679 
	C253.231827,425.180054 252.881424,425.220428 252.033569,424.871033 
	C247.401657,422.628998 243.413712,423.612518 239.452103,425.105652 
	C239.452103,425.105652 239.184540,425.200439 239.103058,424.625122 
	C239.021591,419.967682 239.021591,415.885559 239.021591,411.988495 
	C248.370590,411.988495 257.125610,412.032440 265.878204,411.907593 
	C266.600586,411.897308 267.306610,410.742310 268.020264,410.119202 
	C269.175659,410.119171 270.331116,410.119171 272.101959,410.119171 
	C272.101959,419.407379 272.152069,428.671204 272.030884,437.932831 
	C272.017548,438.952820 271.185150,440.097931 270.459076,440.952576 
	C257.965881,455.657715 241.889465,460.794586 223.367050,457.037994 
	C205.789856,453.473083 193.706924,442.999573 189.476837,425.068390 
	C188.317993,420.156158 188.857986,414.843201 189.146606,409.319519 
	C191.624191,408.159546 193.580093,405.864807 195.457535,409.236755 
	C195.724792,409.716766 197.964142,409.843994 198.458878,409.331482 
	C201.740646,405.931763 205.349197,402.660309 207.829712,398.706146 
	C219.435791,380.205170 235.856506,380.863739 250.991974,390.377502 
	C249.709793,391.477081 248.437454,392.201660 247.165115,392.926239 
	C247.165115,392.926239 247.085907,392.990082 246.942169,392.750732 
	C246.600571,392.266998 246.351959,392.096771 246.052582,392.000671 
z"/>
<path fill="#034AF2" opacity="1.000000" stroke="none" 
	d="
M286.179138,455.965515 
	C286.067993,439.044434 285.931946,422.123444 285.855530,405.202209 
	C285.813568,395.908447 285.872223,386.614258 286.421631,377.118225 
	C289.358307,378.821838 291.890503,380.586823 294.119934,382.675110 
	C296.090332,384.520813 297.629242,385.634674 300.872498,385.235901 
	C308.705963,384.272797 316.664612,384.276398 324.577057,384.026672 
	C329.172058,383.881622 333.775391,384.000305 338.688141,384.000305 
	C338.707306,377.857880 342.025940,376.715057 346.810638,377.753052 
	C346.495331,381.515533 346.180054,385.278015 345.334167,388.587006 
	C344.126648,387.760468 343.451630,387.066254 342.772491,387.062195 
	C331.363770,386.993713 319.953674,386.948944 308.546661,387.103241 
	C307.365662,387.119202 306.202240,388.433411 305.030640,389.145264 
	C304.830322,401.744324 304.609589,414.343079 304.440125,426.942566 
	C304.375824,431.724701 304.429688,436.508423 304.429688,441.916260 
	C319.160126,441.916260 333.357147,441.916260 348.629364,441.916260 
	C348.325867,447.356476 348.058228,452.154724 347.316223,456.595581 
	C342.302368,455.828156 337.759460,455.036835 333.223969,455.077271 
	C317.540985,455.216980 301.860535,455.646393 286.179138,455.965515 
z"/>
<path fill="#034DF3" opacity="1.000000" stroke="none" 
	d="
M598.334656,454.996063 
	C598.268433,453.909210 598.202271,452.822357 598.449829,450.997314 
	C598.843201,448.436737 598.990723,446.614380 598.992126,444.791901 
	C599.008972,423.148834 598.961304,401.505554 599.090942,379.863251 
	C599.100708,378.234955 600.334961,376.614014 601.468628,374.992798 
	C616.793152,375.296173 631.648926,375.596375 646.504761,375.896576 
	C648.826904,377.142853 651.149048,378.389130 653.678711,380.187439 
	C652.924133,381.830414 651.962036,382.921387 650.747253,384.230530 
	C650.728333,385.703461 650.907898,386.971283 651.206238,388.210480 
	C652.064941,391.777588 653.017944,395.322418 653.846069,398.896332 
	C654.622375,402.246735 655.286499,405.623108 655.962097,409.353027 
	C654.027405,420.090729 642.757751,423.142365 639.081299,431.886230 
	C636.115540,431.194977 633.556091,430.598389 630.642517,430.076782 
	C630.062866,430.237396 629.837280,430.323090 629.611755,430.408752 
	C629.611755,430.408752 629.712036,430.256989 629.603271,429.953857 
	C627.900635,429.414612 626.308289,429.167877 624.712769,428.944153 
	C616.836487,427.839752 612.078003,430.549469 612.280457,438.145355 
	C612.558044,448.562500 605.565613,451.549988 598.334656,454.996063 
M644.538269,409.864441 
	C644.785278,409.657532 644.964722,409.403015 645.762451,408.916107 
	C650.522400,404.708893 648.326477,400.331024 646.066528,395.209015 
	C647.179749,394.058777 648.292969,392.908539 649.466614,391.695862 
	C647.412231,387.760956 638.227661,383.159882 633.843140,384.052429 
	C633.361938,384.150360 632.675720,384.166016 632.455383,384.480042 
	C629.827209,388.225372 625.916809,386.876282 622.445740,386.965210 
	C616.499878,387.117554 609.435059,391.446594 609.139099,395.947510 
	C608.804138,401.042236 608.790405,406.266937 609.664856,411.254913 
	C609.880493,412.484802 614.080750,413.014526 616.446899,413.872650 
	C616.599854,413.928101 616.732300,414.039856 617.158142,414.880310 
	C623.423462,415.094940 629.691345,415.493744 635.952332,415.404083 
	C637.673218,415.379425 639.373291,413.894348 641.655457,412.982269 
	C642.113708,412.661743 642.571899,412.341217 643.497742,411.690613 
	C643.713440,411.168610 643.929138,410.646606 644.538269,409.864441 
z"/>
<path fill="#0751F1" opacity="1.000000" stroke="none" 
	d="
M144.156494,395.616089 
	C142.948654,396.836182 141.184784,397.841370 140.617615,399.309052 
	C133.724747,417.145966 126.931870,435.022858 120.315208,452.963928 
	C119.114548,456.219543 117.590553,457.827759 113.940498,457.600922 
	C109.371429,457.316986 104.771309,457.532654 99.392464,457.532654 
	C102.125496,450.623688 104.571121,444.333496 107.097054,438.075684 
	C115.188065,418.030975 123.383072,398.027679 131.346390,377.932495 
	C132.701859,374.511993 134.372421,372.815399 138.230728,373.161865 
	C141.861847,373.487915 145.560516,373.388885 149.205597,373.134552 
	C152.450333,372.908264 154.203354,374.209808 154.595306,377.901001 
	C153.302551,381.671814 150.934174,385.070831 151.459732,387.939728 
	C152.361038,392.859680 151.905121,396.519440 148.478409,399.007019 
	C146.902313,397.770447 145.529404,396.693268 144.156494,395.616089 
z"/>
<path fill="#0751F1" opacity="1.000000" stroke="none" 
	d="
M724.124817,373.691406 
	C724.807251,374.734833 725.489624,375.778229 726.120117,377.564758 
	C726.045593,378.864105 726.022949,379.420349 725.679810,380.125366 
	C719.691406,382.905823 722.930176,387.554779 723.351318,391.112183 
	C724.183044,398.137817 724.292969,398.435516 716.916931,399.067902 
	C716.916931,399.067902 716.943787,399.004395 716.957153,398.712708 
	C716.781677,397.571167 716.592773,396.721344 716.403809,395.871521 
	C716.271973,396.166382 716.140137,396.461243 716.008301,396.756134 
	C713.241516,393.171692 712.946594,396.901428 712.438782,398.177582 
	C709.119873,406.519531 705.968018,414.928284 702.798767,423.329254 
	C698.925964,433.595551 695.207092,443.922943 691.108276,454.097656 
	C690.510071,455.582642 688.244080,457.187347 686.630188,457.324036 
	C681.675171,457.743774 676.661987,457.476868 670.876221,457.476868 
	C681.583496,431.054443 692.213684,404.822327 703.231689,378.110687 
	C703.707520,377.301300 703.795471,376.971436 703.883423,376.641602 
	C703.952942,376.256775 704.022400,375.871979 704.723511,375.251892 
	C708.479492,375.009460 711.615601,375.169006 714.724792,374.948517 
	C717.872009,374.725250 720.992554,374.125977 724.124817,373.691406 
z"/>
<path fill="#0248F1" opacity="1.000000" stroke="none" 
	d="
M873.386475,436.876709 
	C873.497986,438.007812 873.609497,439.138947 873.450623,440.927551 
	C870.704041,444.165771 870.604187,447.090942 873.115112,449.369629 
	C874.670227,450.780884 877.151367,451.800629 879.253723,451.869446 
	C887.720764,452.146729 896.202148,451.995880 904.678223,451.982941 
	C911.135803,451.973053 911.684143,451.253265 910.229126,444.019043 
	C906.937073,444.019043 903.481873,444.205261 900.059204,443.951324 
	C897.900085,443.791138 895.789856,442.972839 893.657654,442.449738 
	C900.453918,442.440643 907.250122,442.431519 914.413330,442.892639 
	C913.289978,446.607544 914.137878,448.869324 917.586121,450.038116 
	C917.649780,450.488434 917.713440,450.938782 917.496094,452.006927 
	C917.152161,454.043121 917.089111,455.461456 917.026123,456.879822 
	C916.581360,456.994080 916.136597,457.108337 915.064941,456.821350 
	C909.693542,455.950470 904.954468,455.152405 900.203674,455.075500 
	C888.100342,454.879517 875.990051,454.895721 863.887085,455.100067 
	C861.596130,455.138702 859.326416,456.436066 857.046936,457.152679 
	C857.046936,457.152679 857.129700,457.104340 856.842407,457.078308 
	C856.347595,457.060638 856.139954,457.069000 855.932373,457.077362 
	C855.932373,457.077362 855.984558,456.996918 855.976135,456.705200 
	C855.719543,455.617310 855.471375,454.821075 855.223145,454.024872 
	C855.166382,452.950592 855.109558,451.876312 855.512573,450.401764 
	C859.831421,449.804138 859.438232,448.043457 857.824219,445.467743 
	C856.940918,444.058319 856.101379,442.316162 856.086426,440.716125 
	C855.965210,427.807343 856.044800,414.896667 856.448486,401.978729 
	C857.886108,399.806061 859.533081,397.729004 859.868347,395.458282 
	C860.593994,390.544037 861.248535,386.174866 867.875549,386.789825 
	C869.275330,386.919708 870.812439,386.293732 872.194580,385.772827 
	C881.068787,382.428375 890.194519,383.756165 899.165771,384.708038 
	C905.864258,385.418793 909.919067,383.683350 911.789185,377.565979 
	C912.860168,378.378387 913.930054,379.192230 915.002441,380.443726 
	C915.001587,382.926208 914.998352,384.971069 914.526733,387.012268 
	C902.493347,387.007385 890.927368,386.931702 879.364319,387.084259 
	C877.600891,387.107483 875.851379,388.187225 874.041260,388.907410 
	C873.987061,389.036499 873.913696,389.306732 873.913696,389.306732 
	C873.913696,389.306732 873.871643,389.715729 873.611084,389.945618 
	C873.174133,390.472931 873.232117,390.716614 873.524475,390.906525 
	C873.547546,405.346375 873.570679,419.786255 873.356079,434.841125 
	C873.207703,435.929688 873.297058,436.403198 873.386475,436.876709 
z"/>
<path fill="#074CE8" opacity="1.000000" stroke="none" 
	d="
M378.998779,457.000458 
	C374.982117,457.148285 370.965485,457.296082 366.601562,457.010437 
	C367.803619,454.268616 369.800934,452.140625 370.816925,449.617462 
	C373.691071,442.479736 373.423859,435.139221 371.112518,427.869598 
	C370.581390,426.199127 369.726593,424.631561 369.015015,422.575958 
	C369.015778,420.818665 368.735779,419.421051 369.081085,418.200317 
	C370.236908,414.114288 369.439636,409.132568 374.447235,406.738983 
	C376.438599,405.787079 378.153656,404.257141 380.304993,403.128876 
	C384.502533,406.444275 387.650787,411.022766 394.199249,410.437988 
	C393.537201,408.328247 393.090942,406.593842 392.454895,404.932098 
	C389.366119,396.862946 386.226471,388.813232 383.104828,380.756653 
	C385.581207,384.039032 388.225159,387.209412 390.506592,390.622131 
	C404.658600,411.791687 418.731659,433.014008 432.817169,454.227905 
	C433.340454,455.016022 433.721588,455.898560 434.564575,457.478516 
	C428.380066,457.478516 422.778534,457.737854 417.230560,457.307281 
	C415.728790,457.190735 414.037048,455.220581 413.029480,453.704437 
	C403.081421,438.735504 393.266907,423.677795 383.386536,408.663696 
	C382.585510,407.446411 381.576752,406.365814 379.586853,403.870209 
	C379.327209,407.592865 379.168518,409.867920 378.995178,413.000000 
	C378.656952,416.974579 378.342896,420.093201 378.007660,423.209503 
	C377.423645,428.638702 379.701569,434.487915 375.482025,439.431854 
	C374.989166,440.009338 375.576660,441.601990 375.812256,442.691833 
	C376.844513,447.467834 377.931580,452.231995 378.998779,457.000458 
z"/>
<path fill="#074CE8" opacity="1.000000" stroke="none" 
	d="
M144.169922,396.013885 
	C145.529404,396.693268 146.902313,397.770447 148.478409,399.007019 
	C151.905121,396.519440 152.361038,392.859680 151.459732,387.939728 
	C150.934174,385.070831 153.302551,381.671814 154.616943,378.278564 
	C161.060013,393.440887 167.275497,408.827728 173.443054,424.233795 
	C177.755692,435.006348 182.002823,445.805176 186.675598,457.592102 
	C179.855209,457.592102 173.647644,457.673004 167.448853,457.476593 
	C166.772034,457.455139 165.894211,455.929047 165.533295,454.945404 
	C158.379181,435.447937 151.287613,415.927460 144.169922,396.013885 
z"/>
<path fill="#084EEF" opacity="1.000000" stroke="none" 
	d="
M470.160461,439.998596 
	C470.168030,427.535553 470.472534,415.561523 470.045258,403.613647 
	C469.862640,398.507263 472.271942,396.239075 476.432617,396.113434 
	C480.087708,396.003113 483.835968,397.224945 487.431183,398.250610 
	C488.224731,398.476990 489.011139,400.352783 489.017059,401.473206 
	C489.114502,419.903961 489.086273,438.335388 489.086273,457.261658 
	C482.832611,457.261658 476.830170,457.261658 470.161072,457.261658 
	C470.161072,451.695374 470.161072,446.096771 470.160461,439.998596 
z"/>
<path fill="#070305" opacity="1.000000" stroke="none" 
	d="
M477.000458,373.660217 
	C489.301666,373.660339 501.102844,373.660339 513.258606,373.660339 
	C513.258606,378.751892 513.258606,383.783173 513.258606,389.038513 
	C491.052826,389.038513 468.968353,389.038513 446.605042,389.038513 
	C446.605042,383.970459 446.605042,379.078674 446.605042,373.660126 
	C456.616638,373.660126 466.558533,373.660126 477.000458,373.660217 
z"/>
<path fill="#054BE8" opacity="1.000000" stroke="none" 
	d="
M716.922241,399.452515 
	C724.292969,398.435516 724.183044,398.137817 723.351318,391.112183 
	C722.930176,387.554779 719.691406,382.905823 725.952026,380.372070 
	C727.224060,382.680695 727.755798,384.949982 728.605774,387.093018 
	C737.157166,408.653076 745.745850,430.198395 754.366638,451.730774 
	C755.576843,454.753540 754.818970,455.965179 751.467285,456.074524 
	C747.940186,456.189606 744.430176,456.828247 740.912659,457.238098 
	C739.590942,456.390625 737.504028,455.830261 737.062195,454.652679 
	C730.224731,436.428070 723.600830,418.123352 716.922241,399.452515 
z"/>
<path fill="#044FF2" opacity="1.000000" stroke="none" 
	d="
M762.873901,400.425018 
	C762.873901,400.425018 762.759766,400.193268 763.221252,400.032013 
	C764.102722,398.528503 764.522766,397.186249 764.942749,395.843964 
	C771.482971,382.161438 783.191040,375.540070 797.418213,373.280029 
	C808.615845,371.501221 819.612366,373.112946 829.962891,379.596375 
	C831.343445,380.760620 832.418701,381.304535 833.493958,381.848419 
	C833.493958,381.848419 833.826721,381.846069 833.960693,382.357056 
	C835.797852,388.810608 832.128662,393.419281 826.142517,393.011566 
	C823.742981,392.848083 821.319580,393.034729 818.907043,393.062042 
	C818.907043,393.062042 818.995544,393.028564 818.965027,392.735474 
	C818.621338,391.629089 818.308167,390.815765 818.121216,389.697632 
	C817.572144,388.658295 816.824280,387.265076 816.236938,387.329712 
	C815.105103,387.454285 814.064026,388.403137 812.704773,388.885986 
	C811.612061,388.180664 810.799927,387.599487 809.976318,386.602661 
	C807.634888,381.654175 803.477234,384.134216 800.380676,384.223633 
	C796.331116,384.340546 792.162598,385.762726 789.702271,390.153564 
	C786.275330,393.206573 783.148621,396.110931 779.679382,399.060028 
	C775.707825,404.109528 772.089172,409.121887 768.440674,414.112366 
	C767.728577,415.086334 766.900024,415.975159 766.125183,416.903229 
	C765.134644,415.961365 764.059143,415.092163 763.175049,414.059143 
	C762.077576,412.776917 761.138428,411.359100 760.130859,409.999817 
	C760.283691,409.176483 760.436584,408.353088 761.061584,407.043396 
	C761.622192,405.638123 761.710693,404.719208 761.799194,403.800262 
	C761.799255,403.800262 761.842163,403.919891 762.128052,403.721832 
	C762.567200,402.490845 762.720581,401.457947 762.873901,400.425018 
z"/>
<path fill="#064CEB" opacity="1.000000" stroke="none" 
	d="
M760.046326,410.457947 
	C761.138428,411.359100 762.077576,412.776917 763.175049,414.059143 
	C764.059143,415.092163 765.134644,415.961365 766.125183,416.903229 
	C766.900024,415.975159 767.728577,415.086334 768.440674,414.112366 
	C772.089172,409.121887 775.707825,404.109528 779.667969,399.450317 
	C779.686768,403.205109 779.374573,406.614410 779.062317,410.023682 
	C777.216125,425.375580 784.918091,434.940735 797.668335,441.607056 
	C794.914429,442.277161 792.480835,442.592529 789.642517,442.960297 
	C789.545776,441.640564 789.462219,440.499786 789.333618,438.744385 
	C786.688110,439.692657 784.488647,440.481018 781.566223,441.528564 
	C780.833923,441.094147 779.275696,440.169800 777.374634,439.042053 
	C778.262573,447.538422 787.290527,447.170013 789.634521,451.526794 
	C793.592773,452.459808 796.588684,453.602142 799.636841,453.765198 
	C802.861877,453.937714 806.132629,452.952606 809.391174,452.891846 
	C812.397339,452.835754 815.413879,453.334839 818.737793,453.615784 
	C819.303955,452.727722 819.984192,450.511902 821.474854,449.542816 
	C825.585449,446.870667 830.064209,444.770966 834.328979,442.325562 
	C835.332703,441.750000 836.908508,440.464142 836.754333,439.922821 
	C836.404053,438.693298 835.235352,437.624634 834.227539,436.672455 
	C832.897156,435.415466 831.402161,434.332581 829.977966,433.174866 
	C834.330383,435.006470 838.682739,436.838074 843.060059,438.680176 
	C835.947510,453.124115 812.512268,461.669586 793.592712,457.010742 
	C776.215698,452.731812 758.357849,438.622070 760.046326,410.457947 
z"/>
<path fill="#050102" opacity="1.000000" stroke="none" 
	d="
M554.999817,389.252747 
	C543.059631,389.252655 531.619507,389.252655 519.957397,389.252655 
	C519.957397,383.829926 519.957397,378.927734 519.957397,373.818054 
	C542.268127,373.818054 564.357788,373.818054 586.713074,373.818054 
	C586.713074,378.698395 586.713074,383.627167 586.713074,389.252838 
	C576.322937,389.252838 565.911377,389.252838 554.999817,389.252747 
z"/>
<path fill="#044FF2" opacity="1.000000" stroke="none" 
	d="
M251.001831,390.002472 
	C235.856506,380.863739 219.435791,380.205170 207.829712,398.706146 
	C205.349197,402.660309 201.740646,405.931763 198.458878,409.331482 
	C197.964142,409.843994 195.724792,409.716766 195.457535,409.236755 
	C193.580093,405.864807 191.624191,408.159546 189.322968,408.955322 
	C189.436707,406.501129 189.902328,404.016571 190.919052,401.155334 
	C191.666183,399.858093 191.862228,398.937500 192.058289,398.016937 
	C198.275711,383.005249 210.396011,375.627289 225.655136,373.188171 
	C236.685074,371.425049 247.566696,372.794861 257.772919,379.301270 
	C258.060852,381.914612 258.028839,383.952423 257.681824,386.133057 
	C256.579254,387.514801 255.791656,388.753723 255.002029,389.996338 
	C255.000000,390.000000 254.992905,390.003662 254.593781,390.002838 
	C253.130371,390.002167 252.066101,390.002319 251.001831,390.002472 
z"/>
<path fill="#0449EB" opacity="1.000000" stroke="none" 
	d="
M630.996582,430.001831 
	C633.556091,430.598389 636.115540,431.194977 639.081299,431.886230 
	C642.757751,423.142365 654.027405,420.090729 656.256592,409.061737 
	C658.095703,399.502350 656.662720,391.272766 651.000000,384.012329 
	C651.962036,382.921387 652.924133,381.830414 653.943359,380.406311 
	C660.369080,384.007690 663.328125,389.702332 663.095154,397.194214 
	C662.915466,402.975830 664.357788,409.133423 660.980347,414.260712 
	C658.307129,418.318726 654.937866,422.169098 651.122498,425.142792 
	C648.187439,427.430389 647.290161,428.607208 649.543091,431.966858 
	C654.437378,439.265747 658.848511,446.888611 663.104309,454.693604 
	C657.862183,455.004211 652.968384,454.883911 648.086426,455.070648 
	C646.706177,455.123474 645.360229,456.074158 643.998596,456.613068 
	C640.676941,450.684631 637.355347,444.756165 634.006592,438.106781 
	C633.248779,436.280579 632.518127,435.175262 631.787537,434.069977 
	C631.482117,433.709717 631.176697,433.349426 630.901489,432.327454 
	C630.953308,431.111145 630.974915,430.556488 630.996582,430.001831 
z"/>
<path fill="#0751F1" opacity="1.000000" stroke="none" 
	d="
M544.039001,402.996155 
	C542.859253,399.583130 544.440002,397.814606 547.532593,396.617859 
	C552.307251,394.770142 556.712585,395.938080 560.823486,398.256134 
	C561.884583,398.854431 562.580872,400.931610 562.625000,402.354828 
	C562.798767,407.968933 562.646362,413.593140 562.068604,419.649536 
	C560.681030,422.272736 559.336670,424.409241 559.109802,426.658447 
	C558.711060,430.611420 559.109436,434.637207 558.972656,438.625610 
	C558.616516,449.013947 556.388184,451.427460 546.002441,452.401672 
	C546.002441,450.730835 546.002563,449.110992 546.002441,447.491180 
	C546.001648,437.009430 546.187805,426.522736 545.910583,416.048309 
	C545.795044,411.684143 544.692627,407.346069 544.039001,402.996155 
z"/>
<path fill="#004BF5" opacity="1.000000" stroke="none" 
	d="
M379.994507,402.990387 
	C378.153656,404.257141 376.438599,405.787079 374.447235,406.738983 
	C369.439636,409.132568 370.236908,414.114288 369.081085,418.200317 
	C368.735779,419.421051 369.015778,420.818665 369.010803,422.982727 
	C369.335449,427.550049 370.194244,431.319855 369.853180,434.977753 
	C369.370544,440.153381 368.111053,445.272552 366.894318,450.346466 
	C366.712921,451.102844 364.952454,451.480560 363.994385,451.994873 
	C363.625519,448.145630 363.088409,445.082031 363.077393,442.016479 
	C363.001526,420.924530 363.070129,399.832062 362.992462,378.740112 
	C362.982269,375.974518 363.881622,374.880737 366.716797,374.944061 
	C371.025635,375.040283 375.341827,374.806915 379.654877,374.713531 
	C380.085297,375.280396 380.515747,375.847260 380.974731,377.060730 
	C381.003479,378.470947 381.003632,379.234528 380.690979,380.135376 
	C379.511108,381.685486 377.564331,383.597595 377.949829,384.431274 
	C380.735443,390.455780 383.082825,396.371368 379.994507,402.990387 
z"/>
<path fill="#084EEF" opacity="1.000000" stroke="none" 
	d="
M425.024261,428.917053 
	C420.405396,423.041656 417.354919,416.623718 417.432220,408.911224 
	C417.548584,397.300385 417.462494,385.687561 417.462494,373.633972 
	C423.301880,373.633972 428.694214,373.633972 434.862885,373.633972 
	C434.862885,382.632019 434.862885,391.862732 434.387878,401.568420 
	C432.982056,403.062256 431.533752,403.937347 431.204224,405.123291 
	C429.010681,413.017426 427.056335,420.978058 425.024261,428.917053 
z"/>
<path fill="#15090A" opacity="1.000000" stroke="none" 
	d="
M401.119934,174.454773 
	C404.401123,173.845215 403.974091,176.113968 404.000916,178.096848 
	C404.331299,202.527618 404.655457,226.958511 405.021942,251.388733 
	C405.049072,253.199081 405.388763,255.004745 405.583130,256.812561 
	C406.145355,256.836334 406.707581,256.860107 407.269806,256.883881 
	C407.513336,255.475479 407.943329,254.070862 407.972168,252.658081 
	C408.348328,234.221695 408.619965,215.783005 409.055603,197.348160 
	C409.117188,194.741730 409.908600,192.152557 410.716644,189.734741 
	C410.999237,223.277893 410.927368,256.641724 410.855530,290.005524 
	C409.904053,285.433411 408.907104,280.870117 408.020569,276.285461 
	C407.584015,274.027954 407.351746,271.730927 406.872833,268.369293 
	C404.768341,272.065674 403.371674,274.518799 401.602844,276.987579 
	C401.151764,261.403778 401.034790,245.804428 401.003784,230.204895 
	C400.967133,211.774078 401.004730,193.343109 401.119934,174.454773 
z"/>
<path fill="#004BF5" opacity="1.000000" stroke="none" 
	d="
M829.766174,433.091705 
	C831.402161,434.332581 832.897156,435.415466 834.227539,436.672455 
	C835.235352,437.624634 836.404053,438.693298 836.754333,439.922821 
	C836.908508,440.464142 835.332703,441.750000 834.328979,442.325562 
	C830.064209,444.770966 825.585449,446.870667 821.474854,449.542816 
	C819.984192,450.511902 819.303955,452.727722 818.737793,453.615784 
	C815.413879,453.334839 812.397339,452.835754 809.391174,452.891846 
	C806.132629,452.952606 802.861877,453.937714 799.636841,453.765198 
	C796.588684,453.602142 793.592773,452.459808 789.634521,451.526794 
	C787.290527,447.170013 778.262573,447.538422 777.374634,439.042053 
	C779.275696,440.169800 780.833923,441.094147 781.566223,441.528564 
	C784.488647,440.481018 786.688110,439.692657 789.333618,438.744385 
	C789.462219,440.499786 789.545776,441.640564 789.642517,442.960297 
	C792.480835,442.592529 794.914429,442.277161 797.776978,441.938049 
	C803.128235,441.710907 808.050537,441.507568 813.627563,441.116089 
	C816.504150,439.575073 818.726013,438.222198 820.947876,436.869324 
	C821.007690,436.519684 821.196899,436.266968 822.133057,436.053284 
	C823.718384,434.873108 824.686218,433.750854 825.654053,432.628601 
	C825.654053,432.628632 825.654541,432.683502 826.097412,432.781189 
	C827.393982,432.907867 828.247620,432.936829 829.101318,432.965790 
	C829.101318,432.965790 829.554382,433.008545 829.766174,433.091705 
z"/>
<path fill="#004AFA" opacity="1.000000" stroke="none" 
	d="
M346.891907,377.449799 
	C342.025940,376.715057 338.707306,377.857880 338.688141,384.000305 
	C333.775391,384.000305 329.172058,383.881622 324.577057,384.026672 
	C316.664612,384.276398 308.705963,384.272797 300.872498,385.235901 
	C297.629242,385.634674 296.090332,384.520813 294.119934,382.675110 
	C291.890503,380.586823 289.358307,378.821838 286.584961,376.706604 
	C286.389496,376.279144 286.460114,376.050568 286.985046,375.580200 
	C307.282166,375.327332 327.018280,375.305450 346.754395,375.283569 
	C346.827332,375.904572 346.900238,376.525543 346.891907,377.449799 
z"/>
<path fill="#1459F8" opacity="1.000000" stroke="none" 
	d="
M893.288696,442.334656 
	C895.789856,442.972839 897.900085,443.791138 900.059204,443.951324 
	C903.481873,444.205261 906.937073,444.019043 910.229126,444.019043 
	C911.684143,451.253265 911.135803,451.973053 904.678223,451.982941 
	C896.202148,451.995880 887.720764,452.146729 879.253723,451.869446 
	C877.151367,451.800629 874.670227,450.780884 873.115112,449.369629 
	C870.604187,447.090942 870.704041,444.165771 873.403320,441.354584 
	C874.192871,441.632263 874.761841,442.583313 875.325562,442.580200 
	C881.190735,442.548065 887.055115,442.362549 893.288696,442.334656 
z"/>
<path fill="#0751F1" opacity="1.000000" stroke="none" 
	d="
M318.001740,422.889679 
	C317.515594,422.120483 316.548248,421.300507 316.623169,420.590515 
	C317.040924,416.631561 317.711121,412.699188 318.344238,408.425507 
	C326.491333,408.425507 334.548157,408.425507 343.000214,408.425507 
	C343.000214,412.230927 343.000214,415.856018 342.352631,419.775452 
	C335.280396,420.378265 328.847778,420.582825 322.436890,421.071625 
	C320.921112,421.187164 319.478180,422.258179 318.001740,422.889679 
z"/>
<path fill="#0751F1" opacity="1.000000" stroke="none" 
	d="
M888.996460,422.907959 
	C886.813660,423.441742 885.292175,423.191803 885.907471,420.341888 
	C886.011597,419.859650 886.011841,419.355560 886.070679,418.862854 
	C887.342407,408.207581 887.342590,408.200073 898.177490,408.146210 
	C902.615845,408.124176 907.054321,408.142578 912.163391,408.142578 
	C912.163391,411.281067 912.163391,414.192444 911.698364,417.599426 
	C908.647888,420.795471 905.453857,421.323914 901.862244,421.047119 
	C898.731750,420.805878 895.553772,420.825531 892.426147,421.084137 
	C891.240723,421.182159 890.137268,422.270813 888.996460,422.907959 
z"/>
<path fill="#0243E5" opacity="1.000000" stroke="none" 
	d="
M543.950806,403.457764 
	C544.692627,407.346069 545.795044,411.684143 545.910583,416.048309 
	C546.187805,426.522736 546.001648,437.009430 546.002441,447.491180 
	C546.002563,449.110992 546.002441,450.730835 546.002441,452.401672 
	C556.388184,451.427460 558.616516,449.013947 558.972656,438.625610 
	C559.109436,434.637207 558.711060,430.611420 559.109802,426.658447 
	C559.336670,424.409241 560.681030,422.272736 561.922363,420.032227 
	C562.397949,422.327301 562.473389,424.675598 562.082092,427.714355 
	C561.411072,432.486023 561.012573,436.570099 561.075012,440.647186 
	C561.112732,443.108704 561.866211,445.559296 562.298157,448.014801 
	C562.397705,450.725189 562.497253,453.435577 562.418457,456.563599 
	C562.240173,456.981201 562.260559,456.935944 562.260559,456.935944 
	C556.366211,457.430328 550.471863,457.924744 543.862610,458.479126 
	C543.862610,439.766479 543.862610,421.842926 543.950806,403.457764 
z"/>
<path fill="#100A0B" opacity="1.000000" stroke="none" 
	d="
M449.198059,210.199554 
	C451.039429,209.189163 452.615295,207.939850 454.253387,207.852020 
	C459.558960,207.567490 464.887970,207.747803 470.206879,207.672943 
	C473.597504,207.625229 476.266754,209.520767 475.849731,212.475204 
	C475.567963,214.471390 472.575104,217.319061 470.506622,217.590775 
	C464.949493,218.320663 459.224792,218.110947 453.591492,217.809479 
	C449.632874,217.597626 447.966644,214.563370 449.198059,210.199554 
z"/>
<path fill="#044CEF" opacity="1.000000" stroke="none" 
	d="
M380.304993,403.128876 
	C383.082825,396.371368 380.735443,390.455780 377.949829,384.431274 
	C377.564331,383.597595 379.511108,381.685486 381.016541,380.136292 
	C382.089142,380.001282 382.523346,380.002625 382.957581,380.003937 
	C382.957581,380.003937 383.126892,380.361603 383.115845,380.559143 
	C386.226471,388.813232 389.366119,396.862946 392.454895,404.932098 
	C393.090942,406.593842 393.537201,408.328247 394.199249,410.437988 
	C387.650787,411.022766 384.502533,406.444275 380.304993,403.128876 
z"/>
<path fill="#074CE8" opacity="1.000000" stroke="none" 
	d="
M598.260742,455.368347 
	C605.565613,451.549988 612.558044,448.562500 612.280457,438.145355 
	C612.078003,430.549469 616.836487,427.839752 624.712769,428.944153 
	C626.308289,429.167877 627.900635,429.414612 629.649780,430.031952 
	C628.494263,430.235443 627.186646,429.941345 625.871765,429.904053 
	C623.087524,429.825012 620.299500,429.879944 617.053589,429.879944 
	C617.053589,439.080322 617.053589,447.805298 617.053589,457.085022 
	C610.840881,457.085022 605.095093,457.111420 599.350891,457.027222 
	C598.956665,457.021454 598.574524,456.188782 598.260742,455.368347 
z"/>
<path fill="#1151E8" opacity="1.000000" stroke="none" 
	d="
M379.420044,374.366028 
	C375.341827,374.806915 371.025635,375.040283 366.716797,374.944061 
	C363.881622,374.880737 362.982269,375.974518 362.992462,378.740112 
	C363.070129,399.832062 363.001526,420.924530 363.077393,442.016479 
	C363.088409,445.082031 363.625519,448.145630 363.994385,451.994873 
	C364.952454,451.480560 366.712921,451.102844 366.894318,450.346466 
	C368.111053,445.272552 369.370544,440.153381 369.853180,434.977753 
	C370.194244,431.319855 369.335449,427.550049 369.016541,423.423431 
	C369.726593,424.631561 370.581390,426.199127 371.112518,427.869598 
	C373.423859,435.139221 373.691071,442.479736 370.816925,449.617462 
	C369.800934,452.140625 367.803619,454.268616 366.148560,456.915222 
	C363.799866,458.004974 362.120544,457.989594 362.132599,454.872345 
	C362.236633,428.011658 362.303436,401.150879 362.392822,374.290131 
	C362.393280,374.155396 362.557709,374.021179 363.269104,372.932556 
	C368.182251,373.267792 373.683746,373.643188 379.420044,374.366028 
z"/>
<path fill="#0243E5" opacity="1.000000" stroke="none" 
	d="
M425.120789,429.242920 
	C427.056335,420.978058 429.010681,413.017426 431.204224,405.123291 
	C431.533752,403.937347 432.982056,403.062256 434.277557,402.025482 
	C434.710724,411.721130 434.779175,421.434662 434.537170,431.922821 
	C434.126678,434.242249 434.026611,435.787048 433.926575,437.331848 
	C431.023499,434.744171 428.120392,432.156464 425.120789,429.242920 
z"/>
<path fill="#161011" opacity="1.000000" stroke="none" 
	d="
M461.584381,172.849121 
	C458.497894,172.800476 455.579956,173.403275 453.278290,172.476120 
	C451.242249,171.655975 449.892456,169.132263 448.239716,167.360657 
	C449.977417,165.860947 451.496246,163.725861 453.511444,163.031631 
	C455.742035,162.263214 458.432861,162.914307 460.912262,162.764679 
	C464.546326,162.545349 468.149017,163.295135 468.684845,167.199600 
	C469.279541,171.533127 465.389771,172.265045 461.584381,172.849121 
z"/>
<path fill="#1151E8" opacity="1.000000" stroke="none" 
	d="
M741.291504,457.398132 
	C744.430176,456.828247 747.940186,456.189606 751.467285,456.074524 
	C754.818970,455.965179 755.576843,454.753540 754.366638,451.730774 
	C745.745850,430.198395 737.157166,408.653076 728.605774,387.093018 
	C727.755798,384.949982 727.224060,382.680695 726.272461,380.223297 
	C726.022949,379.420349 726.045593,378.864105 726.117798,377.891083 
	C730.614258,388.366882 735.130310,399.231842 739.491394,410.158661 
	C745.687988,425.684387 751.770508,441.255615 758.197815,457.558167 
	C752.400513,457.558167 747.035400,457.558167 741.291504,457.398132 
z"/>
<path fill="#161011" opacity="1.000000" stroke="none" 
	d="
M462.426025,185.366074 
	C466.244934,185.645920 469.059174,187.257111 468.704254,190.770889 
	C468.354370,194.234650 465.259888,195.261841 461.904816,195.132980 
	C459.079102,195.024460 456.069946,195.683441 453.473694,194.901413 
	C451.459167,194.294617 449.956451,191.988678 448.226257,190.438004 
	C449.827454,188.765396 451.160309,186.227570 453.094208,185.627869 
	C455.830627,184.779327 459.010620,185.361389 462.426025,185.366074 
z"/>
<path fill="#074CE8" opacity="1.000000" stroke="none" 
	d="
M819.030884,393.381348 
	C821.319580,393.034729 823.742981,392.848083 826.142517,393.011566 
	C832.128662,393.419281 835.797852,388.810608 834.044434,382.500793 
	C837.355042,385.083466 840.715820,388.033386 844.758850,391.582153 
	C838.467468,394.470215 833.491089,396.903809 828.366943,398.971161 
	C827.430359,399.349060 825.759766,398.447937 824.660706,397.763489 
	C822.730530,396.561493 820.980286,395.070557 819.030884,393.381348 
z"/>
<path fill="#013DDA" opacity="1.000000" stroke="none" 
	d="
M286.175995,456.363983 
	C301.860535,455.646393 317.540985,455.216980 333.223969,455.077271 
	C337.759460,455.036835 342.302368,455.828156 346.919006,456.616791 
	C327.281433,457.170349 307.566711,457.351593 287.851715,457.487793 
	C287.293793,457.491638 286.732544,457.015015 286.175995,456.363983 
z"/>
<path fill="#1151E8" opacity="1.000000" stroke="none" 
	d="
M779.281128,409.754700 
	C779.374573,406.614410 779.686768,403.205109 780.010437,399.405548 
	C783.148621,396.110931 786.275330,393.206573 790.129761,390.155457 
	C797.234192,389.011902 803.610962,388.015106 809.987793,387.018311 
	C810.799927,387.599487 811.612061,388.180664 812.689697,389.201294 
	C812.935242,389.850250 812.915222,390.059814 812.895142,390.269409 
	C797.562744,386.640778 784.622986,394.074005 779.281128,409.754700 
z"/>
<path fill="#074CE8" opacity="1.000000" stroke="none" 
	d="
M255.004059,389.992676 
	C255.791656,388.753723 256.579254,387.514801 258.046387,386.099060 
	C259.867310,384.841003 261.008759,383.759796 262.150177,382.678558 
	C264.114227,383.744415 266.078308,384.810303 269.355072,386.588531 
	C263.254395,390.112671 258.352875,393.286133 253.106232,395.713623 
	C251.922546,396.261261 249.536423,394.210083 247.434464,393.140747 
	C248.437454,392.201660 249.709793,391.477081 250.991974,390.377502 
	C252.066101,390.002319 253.130371,390.002167 254.646210,390.334290 
	C255.792526,390.966949 256.487244,391.267334 257.182007,391.567719 
	C257.309143,391.204132 257.436310,390.840576 257.563477,390.476990 
	C256.710358,390.315552 255.857208,390.154114 255.004059,389.992676 
z"/>
<path fill="#013DDA" opacity="1.000000" stroke="none" 
	d="
M857.499756,457.271729 
	C859.326416,456.436066 861.596130,455.138702 863.887085,455.100067 
	C875.990051,454.895721 888.100342,454.879517 900.203674,455.075500 
	C904.954468,455.152405 909.693542,455.950470 914.727295,456.716125 
	C915.016602,457.012146 915.048279,457.019501 914.779724,456.995972 
	C914.331543,456.999481 914.151855,457.026520 913.972229,457.053589 
	C895.299011,457.165985 876.625732,457.278381 857.499756,457.271729 
z"/>
<path fill="#1151E8" opacity="1.000000" stroke="none" 
	d="
M379.355164,456.765076 
	C377.931580,452.231995 376.844513,447.467834 375.812256,442.691833 
	C375.576660,441.601990 374.989166,440.009338 375.482025,439.431854 
	C379.701569,434.487915 377.423645,428.638702 378.007660,423.209503 
	C378.342896,420.093201 378.656952,416.974579 378.992889,413.422180 
	C379.255432,415.729004 379.705627,418.469574 379.721130,421.212555 
	C379.787628,432.984558 379.726288,444.757263 379.355164,456.765076 
z"/>
<path fill="#1459F8" opacity="1.000000" stroke="none" 
	d="
M856.063110,401.986572 
	C856.044800,414.896667 855.965210,427.807343 856.086426,440.716125 
	C856.101379,442.316162 856.940918,444.058319 857.824219,445.467743 
	C859.438232,448.043457 859.831421,449.804138 855.592163,450.004639 
	C855.145874,425.312378 855.079773,400.616974 855.315674,375.462402 
	C855.617737,375.003265 856.034424,375.029755 856.026245,375.495361 
	C856.033081,384.636139 856.048096,393.311371 856.063110,401.986572 
z"/>
<path fill="#074CE8" opacity="1.000000" stroke="none" 
	d="
M601.000000,374.989655 
	C600.334961,376.614014 599.100708,378.234955 599.090942,379.863251 
	C598.961304,401.505554 599.008972,423.148834 598.992126,444.791901 
	C598.990723,446.614380 598.843201,448.436737 598.537354,450.596588 
	C598.218506,426.036438 598.100525,401.138794 598.125977,376.241333 
	C598.127014,375.250183 599.490845,374.260406 600.621826,373.630066 
	C601.003357,374.323029 600.995361,374.656189 601.000000,374.989655 
z"/>
<path fill="#013DDA" opacity="1.000000" stroke="none" 
	d="
M874.095459,388.778320 
	C875.851379,388.187225 877.600891,387.107483 879.364319,387.084259 
	C890.927368,386.931702 902.493347,387.007385 914.521606,387.329529 
	C914.974060,388.073822 914.963257,388.497162 914.952515,388.920532 
	C914.952515,388.920532 914.926575,388.989746 914.453491,388.928528 
	C910.074036,388.915436 906.167725,388.963562 902.261414,389.011719 
	C900.725647,389.064056 899.189880,389.116394 897.078857,389.066681 
	C896.503601,388.964630 896.259583,389.027649 896.259583,389.027649 
	C889.401489,389.056030 882.543335,389.084442 875.050659,388.983459 
	C874.416077,388.854095 874.095459,388.778320 874.095459,388.778320 
z"/>
<path fill="#013DDA" opacity="1.000000" stroke="none" 
	d="
M305.497192,389.159302 
	C306.202240,388.433411 307.365662,387.119202 308.546661,387.103241 
	C319.953674,386.948944 331.363770,386.993713 342.772491,387.062195 
	C343.451630,387.066254 344.126648,387.760468 344.906281,388.522552 
	C331.993896,388.998840 318.978851,389.086090 305.497192,389.159302 
z"/>
<path fill="#1151E8" opacity="1.000000" stroke="none" 
	d="
M267.556488,410.037415 
	C267.306610,410.742310 266.600586,411.897308 265.878204,411.907593 
	C257.125610,412.032440 248.370590,411.988495 239.021591,411.988495 
	C239.021591,415.885559 239.021591,419.967682 239.017426,424.511932 
	C238.571884,420.300537 238.130508,415.627014 237.594879,409.955627 
	C247.938263,409.955627 257.515503,409.955627 267.556488,410.037415 
z"/>
<path fill="#013DDA" opacity="1.000000" stroke="none" 
	d="
M601.468628,374.992798 
	C600.995361,374.656189 601.003357,374.323029 601.020996,373.740051 
	C604.078613,373.402435 607.139099,373.314941 610.990601,373.524445 
	C616.147644,373.692505 620.513733,373.563568 624.879761,373.434631 
	C631.886658,374.066986 638.893555,374.699310 646.202637,375.614136 
	C631.648926,375.596375 616.793152,375.296173 601.468628,374.992798 
z"/>
<path fill="#013DDA" opacity="1.000000" stroke="none" 
	d="
M346.731079,375.269775 
	C327.018280,375.305450 307.282166,375.327332 286.954163,375.452118 
	C286.362244,375.555023 286.396393,375.531464 286.607727,375.178162 
	C286.863556,374.561646 286.908051,374.298431 286.952545,374.035248 
	C306.338806,373.963379 325.725098,373.891510 345.691040,374.269104 
	C346.427368,374.884521 346.584045,375.050476 346.740692,375.216431 
	C346.740692,375.216431 346.707794,375.255981 346.731079,375.269775 
z"/>
<path fill="#013DDA" opacity="1.000000" stroke="none" 
	d="
M858.004517,373.986450 
	C876.362610,373.938171 894.720642,373.889923 913.553589,374.163025 
	C914.028381,374.484406 914.043640,374.972321 913.570251,374.979187 
	C894.732056,374.989929 876.367249,374.993744 858.001465,374.744781 
	C858.001831,374.323486 858.003174,374.154968 858.004517,373.986450 
z"/>
<path fill="#0243E5" opacity="1.000000" stroke="none" 
	d="
M889.456665,423.007324 
	C890.137268,422.270813 891.240723,421.182159 892.426147,421.084137 
	C895.553772,420.825531 898.731750,420.805878 901.862244,421.047119 
	C905.453857,421.323914 908.647888,420.795471 911.605225,418.051880 
	C912.051453,419.484772 912.125854,420.960754 912.233948,423.106689 
	C904.645813,423.106689 897.281372,423.106689 889.456665,423.007324 
z"/>
<path fill="#0243E5" opacity="1.000000" stroke="none" 
	d="
M318.460144,422.994843 
	C319.478180,422.258179 320.921112,421.187164 322.436890,421.071625 
	C328.847778,420.582825 335.280396,420.378265 342.178833,420.162659 
	C342.652588,420.255493 342.603149,420.322083 342.361084,420.661377 
	C341.748169,421.667877 341.377319,422.335114 341.006439,423.002350 
	C341.006439,423.002350 341.000000,423.001221 340.679810,422.982544 
	C339.936829,422.976929 339.514038,422.990021 339.091217,423.003113 
	C332.367004,423.035400 325.642792,423.067719 318.460144,422.994843 
z"/>
<path fill="#1151E8" opacity="1.000000" stroke="none" 
	d="
M223.415970,391.059753 
	C228.823120,386.262238 235.007889,385.734314 241.774078,389.690491 
	C235.946793,390.362305 229.893250,390.752350 223.415970,391.059753 
z"/>
<path fill="#013DDA" opacity="1.000000" stroke="none" 
	d="
M644.426147,456.822571 
	C645.360229,456.074158 646.706177,455.123474 648.086426,455.070648 
	C652.968384,454.883911 657.862183,455.004211 663.195679,455.012024 
	C663.025757,455.729950 662.424500,457.050110 661.795532,457.063568 
	C656.151062,457.183716 650.501587,457.074127 644.426147,456.822571 
z"/>
<path fill="#0751F1" opacity="1.000000" stroke="none" 
	d="
M562.445801,447.567505 
	C561.866211,445.559296 561.112732,443.108704 561.075012,440.647186 
	C561.012573,436.570099 561.411072,432.486023 561.963440,428.138916 
	C562.405457,434.288727 562.499451,440.704468 562.445801,447.567505 
z"/>
<path fill="#1151E8" opacity="1.000000" stroke="none" 
	d="
M723.762329,373.481934 
	C720.992554,374.125977 717.872009,374.725250 714.724792,374.948517 
	C711.615601,375.169006 708.479492,375.009460 704.919495,375.028381 
	C705.844177,374.429810 707.185791,373.348602 708.568115,373.293854 
	C713.504578,373.098358 718.454834,373.251343 723.762329,373.481934 
z"/>
<path fill="#1459F8" opacity="1.000000" stroke="none" 
	d="
M914.043640,374.972321 
	C914.043640,374.972321 914.028381,374.484406 914.017212,374.240601 
	C914.769836,374.307892 916.200317,374.624817 916.197693,374.929138 
	C916.156738,379.587128 915.928894,384.243469 915.348511,388.910339 
	C914.963257,388.497162 914.974060,388.073822 914.989990,387.333191 
	C914.998352,384.971069 915.001587,382.926208 915.005249,380.055695 
	C914.684998,377.810822 914.364319,376.391571 914.043640,374.972321 
z"/>
<path fill="#1459F8" opacity="1.000000" stroke="none" 
	d="
M917.677490,449.624847 
	C914.137878,448.869324 913.289978,446.607544 914.870422,442.994690 
	C920.292725,442.946655 916.699341,447.073456 917.677490,449.624847 
z"/>
<path fill="#1151E8" opacity="1.000000" stroke="none" 
	d="
M239.850586,425.304047 
	C243.413712,423.612518 247.401657,422.628998 251.785065,424.767822 
	C248.105682,425.203705 244.177383,425.353088 239.850586,425.304047 
z"/>
<path fill="#044CEF" opacity="1.000000" stroke="none" 
	d="
M262.150085,382.343353 
	C261.008759,383.759796 259.867310,384.841003 258.361359,385.956238 
	C258.028839,383.952423 258.060852,381.914612 258.045288,379.526611 
	C259.381805,380.120331 260.765930,381.064240 262.150085,382.343353 
z"/>
<path fill="#064CEB" opacity="1.000000" stroke="none" 
	d="
M813.056396,390.533264 
	C812.915222,390.059814 812.935242,389.850250 812.970337,389.325439 
	C814.064026,388.403137 815.105103,387.454285 816.236938,387.329712 
	C816.824280,387.265076 817.572144,388.658295 817.790039,389.698395 
	C816.563171,390.312653 815.793762,390.621368 815.024292,390.930115 
	C814.422058,390.885773 813.819885,390.841461 813.056396,390.533264 
z"/>
<path fill="#074CE8" opacity="1.000000" stroke="none" 
	d="
M624.436646,373.328064 
	C620.513733,373.563568 616.147644,373.692505 611.444092,373.612335 
	C615.402222,373.342621 619.697876,373.282043 624.436646,373.328064 
z"/>
<path fill="#1459F8" opacity="1.000000" stroke="none" 
	d="
M902.609131,389.133759 
	C906.167725,388.963562 910.074036,388.915436 914.434448,388.896851 
	C910.911255,389.036194 906.934021,389.145996 902.609131,389.133759 
z"/>
<path fill="#064CEB" opacity="1.000000" stroke="none" 
	d="
M820.601929,436.941833 
	C818.726013,438.222198 816.504150,439.575073 813.866089,440.888947 
	C815.718628,439.571411 817.987305,438.292847 820.601929,436.941833 
z"/>
<path fill="#1151E8" opacity="1.000000" stroke="none" 
	d="
M253.832733,425.520813 
	C258.175415,426.515594 255.502777,429.186829 254.460800,431.773956 
	C254.162216,429.985138 254.122726,427.943512 253.832733,425.520813 
z"/>
<path fill="#074CE8" opacity="1.000000" stroke="none" 
	d="
M815.283813,391.115753 
	C815.793762,390.621368 816.563171,390.312653 817.663818,390.003174 
	C818.308167,390.815765 818.621338,391.629089 818.934937,392.772034 
	C817.804749,392.501556 816.674072,391.901459 815.283813,391.115753 
z"/>
<path fill="#064CEB" opacity="1.000000" stroke="none" 
	d="
M825.361572,432.744019 
	C824.686218,433.750854 823.718384,434.873108 822.370300,435.994232 
	C823.016357,434.948578 824.042664,433.904022 825.361572,432.744019 
z"/>
<path fill="#084EEF" opacity="1.000000" stroke="none" 
	d="
M434.232056,437.449371 
	C434.026611,435.787048 434.126678,434.242249 434.443726,432.387756 
	C434.619690,433.907654 434.578613,435.737274 434.232056,437.449371 
z"/>
<path fill="#1459F8" opacity="1.000000" stroke="none" 
	d="
M917.281006,456.892059 
	C917.089111,455.461456 917.152161,454.043121 917.425293,452.343353 
	C917.602234,453.676056 917.569031,455.290192 917.281006,456.892059 
z"/>
<path fill="#064CEB" opacity="1.000000" stroke="none" 
	d="
M764.669983,396.047150 
	C764.522766,397.186249 764.102722,398.528503 763.311218,399.939392 
	C763.425537,398.755432 763.911377,397.502869 764.669983,396.047150 
z"/>
<path fill="#074CE8" opacity="1.000000" stroke="none" 
	d="
M631.834839,434.404541 
	C632.518127,435.175262 633.248779,436.280579 633.966553,437.754211 
	C633.263184,436.994720 632.572632,435.866913 631.834839,434.404541 
z"/>
<path fill="#074CE8" opacity="1.000000" stroke="none" 
	d="
M833.309937,381.545898 
	C832.418701,381.304535 831.343445,380.760620 830.194702,379.829010 
	C831.122803,380.041992 832.124390,380.642670 833.309937,381.545898 
z"/>
<path fill="#074CE8" opacity="1.000000" stroke="none" 
	d="
M382.990723,379.684448 
	C382.523346,380.002625 382.089142,380.001282 381.329346,379.999023 
	C381.003632,379.234528 381.003479,378.470947 381.014343,377.325745 
	C381.691528,377.751099 382.357666,378.558014 382.990723,379.684448 
z"/>
<path fill="#044CEF" opacity="1.000000" stroke="none" 
	d="
M191.827454,398.261871 
	C191.862228,398.937500 191.666183,399.858093 191.189087,400.901886 
	C191.137573,400.185669 191.367096,399.346252 191.827454,398.261871 
z"/>
<path fill="#054BE8" opacity="1.000000" stroke="none" 
	d="
M715.992859,397.089417 
	C716.140137,396.461243 716.271973,396.166382 716.403809,395.871521 
	C716.592773,396.721344 716.781677,397.571167 716.952515,398.743835 
	C716.615479,398.518707 716.296448,397.970703 715.992859,397.089417 
z"/>
<path fill="#1459F8" opacity="1.000000" stroke="none" 
	d="
M855.125610,454.367981 
	C855.471375,454.821075 855.719543,455.617310 855.944824,456.743225 
	C855.623901,456.285675 855.325928,455.498413 855.125610,454.367981 
z"/>
<path fill="#064CEB" opacity="1.000000" stroke="none" 
	d="
M828.936157,432.662231 
	C828.247620,432.936829 827.393982,432.907867 826.122437,432.769897 
	C826.726685,432.560181 827.748840,432.459442 828.936157,432.662231 
z"/>
<path fill="#064CEB" opacity="1.000000" stroke="none" 
	d="
M761.539917,404.033966 
	C761.710693,404.719208 761.622192,405.638123 761.261963,406.781494 
	C761.087036,406.093140 761.183899,405.180420 761.539917,404.033966 
z"/>
<path fill="#0248F1" opacity="1.000000" stroke="none" 
	d="
M857.656250,373.880859 
	C858.003174,374.154968 858.001831,374.323486 857.673096,374.747742 
	C856.908691,375.012238 856.471558,375.020996 856.034424,375.029755 
	C856.034424,375.029755 855.617737,375.003265 855.408936,375.002136 
	C855.902771,374.592438 856.605347,374.183868 857.656250,373.880859 
z"/>
<path fill="#064CEB" opacity="1.000000" stroke="none" 
	d="
M762.599365,400.691589 
	C762.720581,401.457947 762.567200,402.490845 762.064697,403.716675 
	C761.918640,402.925781 762.121765,401.941956 762.599365,400.691589 
z"/>
<path fill="#0751F1" opacity="1.000000" stroke="none" 
	d="
M341.380219,423.088013 
	C341.377319,422.335114 341.748169,421.667877 342.372772,420.701172 
	C342.335693,421.325684 342.044861,422.249664 341.380219,423.088013 
z"/>
<path fill="#1459F8" opacity="1.000000" stroke="none" 
	d="
M873.514221,436.596802 
	C873.297058,436.403198 873.207703,435.929688 873.237976,435.304749 
	C873.452454,435.541199 873.547180,435.929047 873.514221,436.596802 
z"/>
<path fill="#0751F1" opacity="1.000000" stroke="none" 
	d="
M339.260590,423.113892 
	C339.514038,422.990021 339.936829,422.976929 340.677216,422.983643 
	C340.473175,423.077179 339.951569,423.150909 339.260590,423.113892 
z"/>
<path fill="#074CE8" opacity="1.000000" stroke="none" 
	d="
M630.642517,430.076782 
	C630.974915,430.556488 630.953308,431.111145 630.889343,432.081451 
	C630.476257,432.005646 630.105469,431.514191 629.673218,430.715729 
	C629.837280,430.323090 630.062866,430.237396 630.642517,430.076782 
z"/>
<path fill="#1151E8" opacity="1.000000" stroke="none" 
	d="
M703.664307,376.798584 
	C703.795471,376.971436 703.707520,377.301300 703.423340,377.801910 
	C703.299744,377.633636 703.372437,377.294617 703.664307,376.798584 
z"/>
<path fill="#034AF2" opacity="1.000000" stroke="none" 
	d="
M286.659973,374.043457 
	C286.908051,374.298431 286.863556,374.561646 286.596375,375.163269 
	C286.371613,375.018341 286.369507,374.535034 286.659973,374.043457 
z"/>
<path fill="#1459F8" opacity="1.000000" stroke="none" 
	d="
M873.622009,390.692230 
	C873.232117,390.716614 873.174133,390.472931 873.474487,390.099182 
	C873.598389,390.022919 873.719543,390.477936 873.622009,390.692230 
z"/>
<path fill="#074CE8" opacity="1.000000" stroke="none" 
	d="
M246.034546,392.285034 
	C246.351959,392.096771 246.600571,392.266998 246.912933,392.709106 
	C246.690460,392.794373 246.353470,392.681885 246.034546,392.285034 
z"/>
<path fill="#1459F8" opacity="1.000000" stroke="none" 
	d="
M896.276978,389.132141 
	C896.259583,389.027649 896.503601,388.964630 896.622375,388.995300 
	C896.741150,389.025940 896.603943,389.258514 896.603943,389.258514 
	C896.603943,389.258514 896.294312,389.236633 896.276978,389.132141 
z"/>
<path fill="#1459F8" opacity="1.000000" stroke="none" 
	d="
M874.041260,388.907410 
	C874.095459,388.778320 874.416077,388.854095 874.569763,388.907593 
	C874.632202,389.182007 874.469971,389.318329 874.075195,389.338440 
	C873.913696,389.306732 873.987061,389.036499 874.041260,388.907410 
z"/>
<path fill="#034AF2" opacity="1.000000" stroke="none" 
	d="
M346.846558,375.005066 
	C346.584045,375.050476 346.427368,374.884521 346.145081,374.400299 
	C346.330414,374.319244 346.641418,374.556488 346.846558,375.005066 
z"/>
<path fill="#0751F1" opacity="1.000000" stroke="none" 
	d="
M562.331543,457.042236 
	C562.260559,456.935944 562.240173,456.981201 562.217590,456.970123 
	C562.195007,456.959045 562.339539,457.297546 562.339539,457.297546 
	C562.339539,457.297546 562.402466,457.148499 562.331543,457.042236 
z"/>
<path fill="#1459F8" opacity="1.000000" stroke="none" 
	d="
M856.039978,457.234497 
	C856.139954,457.069000 856.347595,457.060638 856.859009,457.123291 
	C856.824463,457.260101 856.486023,457.325867 856.039978,457.234497 
z"/>
<path fill="#1459F8" opacity="1.000000" stroke="none" 
	d="
M914.082642,457.167908 
	C914.151855,457.026520 914.331543,456.999481 914.780640,457.012390 
	C915.050171,457.052368 914.668457,457.302216 914.668457,457.302216 
	C914.668457,457.302216 914.193115,457.282257 914.082642,457.167908 
z"/>
<path fill="#FBFAF9" opacity="1.000000" stroke="none" 
	d="
M410.947083,290.465576 
	C410.927368,256.641724 410.999237,223.277893 410.976501,189.452850 
	C410.943115,187.602585 411.004272,186.213562 411.065552,183.972900 
	C411.002014,180.411957 410.938293,177.702667 410.874542,174.993362 
	C410.874542,168.683121 410.874542,162.372879 410.874542,155.626312 
	C416.066772,155.626312 420.772522,155.626312 425.979492,155.626312 
	C425.979492,157.730057 425.978394,159.684052 425.979645,161.638062 
	C426.006561,203.943802 426.025452,246.249573 426.068298,288.555298 
	C426.076294,296.452698 427.427429,297.769714 435.458221,297.776489 
	C464.439362,297.800964 493.420471,297.800598 522.401611,297.809540 
	C524.211548,297.810089 526.021545,297.809631 528.123657,297.809631 
	C528.123657,301.874359 528.123657,305.613739 528.123657,309.792877 
	C489.264923,309.792877 450.410034,309.792877 411.038605,309.792877 
	C411.038605,303.489563 411.038605,297.207581 410.947083,290.465576 
z"/>
<path fill="#15090A" opacity="1.000000" stroke="none" 
	d="
M410.500122,175.091568 
	C410.938293,177.702667 411.002014,180.411957 410.972168,183.564392 
	C407.521271,181.333496 408.773865,178.265869 410.500122,175.091568 
z"/>
<path fill="#F8F7F6" opacity="1.000000" stroke="none" 
	d="
M559.976135,157.038742 
	C568.538330,166.395126 570.605042,176.946365 566.404297,188.327011 
	C562.148987,199.855591 553.149780,206.053406 541.144470,207.458817 
	C530.436096,208.712402 521.809387,204.428986 513.875610,195.129562 
	C519.316284,195.129562 523.501282,195.133972 527.686279,195.128494 
	C533.345703,195.121094 539.005493,195.066376 544.664490,195.109207 
	C548.068542,195.134979 551.060791,193.908600 551.088806,190.367264 
	C551.115784,186.944214 548.333496,185.381729 544.854736,185.382263 
	C535.034180,185.383759 525.213684,185.319977 515.393127,185.304337 
	C508.814514,185.293869 508.810120,185.311020 508.742462,178.790878 
	C508.723877,177.000015 508.739655,175.208786 508.739655,172.917358 
	C519.505737,172.917358 529.779297,172.927216 540.052856,172.908844 
	C542.047729,172.905273 544.387085,173.424393 545.951782,172.571991 
	C548.003479,171.454285 549.443909,169.214706 551.147278,167.457642 
	C549.248840,165.940933 547.410095,163.211029 545.441833,163.114243 
	C536.143860,162.656982 526.810364,162.920212 517.489563,162.926285 
	C516.167053,162.927139 514.844543,162.926392 513.479309,162.926392 
	C517.810974,150.071960 542.346375,139.629669 559.976135,157.038742 
z"/>
<path fill="#0D52EA" opacity="1.000000" stroke="none" 
	d="
M616.874329,414.125397 
	C616.732300,414.039856 616.599854,413.928101 616.446899,413.872650 
	C614.080750,413.014526 609.880493,412.484802 609.664856,411.254913 
	C608.790405,406.266937 608.804138,401.042236 609.139099,395.947510 
	C609.435059,391.446594 616.499878,387.117554 622.445740,386.965210 
	C625.916809,386.876282 629.827209,388.225372 632.455383,384.480042 
	C632.675720,384.166016 633.361938,384.150360 633.843140,384.052429 
	C638.227661,383.159882 647.412231,387.760956 649.466614,391.695862 
	C648.292969,392.908539 647.179749,394.058777 646.031616,395.606812 
	C645.996765,396.004608 645.917053,396.063110 645.664551,395.840881 
	C642.561218,393.512970 639.914978,390.053925 636.816711,389.585602 
	C630.527039,388.634888 623.992920,389.301544 617.078186,389.301544 
	C617.078186,397.695282 617.078186,405.809418 617.027039,413.973816 
	C616.975891,414.024078 616.874329,414.125397 616.874329,414.125397 
z"/>
<path fill="#0D52EA" opacity="1.000000" stroke="none" 
	d="
M650.747253,384.230530 
	C656.662720,391.272766 658.095703,399.502350 656.294556,408.696747 
	C655.286499,405.623108 654.622375,402.246735 653.846069,398.896332 
	C653.017944,395.322418 652.064941,391.777588 651.206238,388.210480 
	C650.907898,386.971283 650.728333,385.703461 650.747253,384.230530 
z"/>
<path fill="#0D52EA" opacity="1.000000" stroke="none" 
	d="
M641.082886,413.079407 
	C639.373291,413.894348 637.673218,415.379425 635.952332,415.404083 
	C629.691345,415.493744 623.423462,415.094940 617.016235,414.502869 
	C616.874329,414.125397 616.975891,414.024078 617.484924,414.055054 
	C625.593994,413.641541 633.194092,413.197113 640.865479,412.835052 
	C640.936829,412.917450 641.082886,413.079407 641.082886,413.079407 
z"/>
<path fill="#0D52EA" opacity="1.000000" stroke="none" 
	d="
M646.038574,395.978271 
	C648.326477,400.331024 650.522400,404.708893 645.378418,408.960938 
	C644.994446,409.005768 644.905396,408.917175 644.998413,408.513062 
	C645.366577,404.093658 645.641846,400.078369 645.917114,396.063110 
	C645.917053,396.063110 645.996765,396.004608 646.038574,395.978271 
z"/>
<path fill="#0D52EA" opacity="1.000000" stroke="none" 
	d="
M643.030090,412.020691 
	C642.571899,412.341217 642.113708,412.661743 641.369141,413.030823 
	C641.082886,413.079407 640.936829,412.917450 641.003235,412.597565 
	C641.552368,412.027618 642.035095,411.777557 642.645325,411.651337 
	C642.772888,411.775177 643.030090,412.020691 643.030090,412.020691 
z"/>
<path fill="#0D52EA" opacity="1.000000" stroke="none" 
	d="
M644.144897,410.124573 
	C643.929138,410.646606 643.713440,411.168610 643.263916,411.855652 
	C643.030090,412.020691 642.772888,411.775177 642.771729,411.407349 
	C643.188843,410.700928 643.606995,410.362305 644.054932,410.049164 
	C644.084656,410.074615 644.144836,410.124573 644.144897,410.124573 
z"/>
<path fill="#0D52EA" opacity="1.000000" stroke="none" 
	d="
M645.035522,409.053345 
	C644.964722,409.403015 644.785278,409.657532 644.341553,409.994507 
	C644.144836,410.124573 644.084656,410.074615 644.134460,409.815216 
	C644.327332,409.233063 644.567749,409.020172 644.905396,408.917175 
	C644.905396,408.917175 644.994446,409.005768 645.035522,409.053345 
z"/>
<path fill="#004AFA" opacity="1.000000" stroke="none" 
	d="
M856.026245,375.495361 
	C856.471558,375.020996 856.908691,375.012238 857.674133,375.000519 
	C876.367249,374.993744 894.732056,374.989929 913.570251,374.979187 
	C914.364319,376.391571 914.684998,377.810822 915.002808,379.618042 
	C913.930054,379.192230 912.860168,378.378387 911.789185,377.565979 
	C909.919067,383.683350 905.864258,385.418793 899.165771,384.708038 
	C890.194519,383.756165 881.068787,382.428375 872.194580,385.772827 
	C870.812439,386.293732 869.275330,386.919708 867.875549,386.789825 
	C861.248535,386.174866 860.593994,390.544037 859.868347,395.458282 
	C859.533081,397.729004 857.886108,399.806061 856.448425,401.978729 
	C856.048096,393.311371 856.033081,384.636139 856.026245,375.495361 
z"/>
<path fill="#064CEB" opacity="1.000000" stroke="none" 
	d="
M809.976318,386.602631 
	C803.610962,388.015106 797.234192,389.011902 790.429932,390.006775 
	C792.162598,385.762726 796.331116,384.340546 800.380676,384.223633 
	C803.477234,384.134216 807.634888,381.654175 809.976318,386.602631 
z"/>
<path fill="#044CEF" opacity="1.000000" stroke="none" 
	d="
M255.002045,389.996338 
	C255.857208,390.154114 256.710358,390.315552 257.563477,390.476990 
	C257.436310,390.840576 257.309143,391.204132 257.182007,391.567719 
	C256.487244,391.267334 255.792526,390.966949 255.045349,390.335114 
	C254.992905,390.003662 255.000000,390.000000 255.002045,389.996338 
z"/>
<path fill="#FBFAF9" opacity="1.000000" stroke="none" 
	d="
M644.998413,408.513062 
	C644.567749,409.020172 644.327332,409.233063 644.104736,409.789764 
	C643.606995,410.362305 643.188843,410.700928 642.644165,411.283508 
	C642.035095,411.777557 641.552368,412.027618 640.931885,412.515167 
	C633.194092,413.197113 625.593994,413.641541 617.536072,414.004761 
	C617.078186,405.809418 617.078186,397.695282 617.078186,389.301544 
	C623.992920,389.301544 630.527039,388.634888 636.816711,389.585602 
	C639.914978,390.053925 642.561218,393.512970 645.664551,395.840881 
	C645.641846,400.078369 645.366577,404.093658 644.998413,408.513062 
z"/>
</svg>